<svg width="32" height="32" viewBox="0 0 32 32" fill="none" xmlns="http://www.w3.org/2000/svg">
<path d="M7.05293 21.0529C7.17688 21.1778 7.32435 21.277 7.48682 21.3447C7.6493 21.4124 7.82358 21.4473 7.99959 21.4473C8.17561 21.4473 8.34988 21.4124 8.51236 21.3447C8.67484 21.277 8.82231 21.1778 8.94626 21.0529L15.0529 14.9462C15.1769 14.8212 15.3243 14.722 15.4868 14.6543C15.6493 14.5867 15.8236 14.5518 15.9996 14.5518C16.1756 14.5518 16.3499 14.5867 16.5124 14.6543C16.6748 14.722 16.8223 14.8212 16.9463 14.9462L23.0529 21.0529C23.1769 21.1778 23.3243 21.277 23.4868 21.3447C23.6493 21.4124 23.8236 21.4473 23.9996 21.4473C24.1756 21.4473 24.3499 21.4124 24.5124 21.3447C24.6748 21.277 24.8223 21.1778 24.9463 21.0529C25.1946 20.8031 25.334 20.4651 25.334 20.1129C25.334 19.7606 25.1946 19.4227 24.9463 19.1729L18.8263 13.0529C18.0763 12.3038 17.0596 11.8831 15.9996 11.8831C14.9396 11.8831 13.9229 12.3038 13.1729 13.0529L7.05293 19.1729C6.80459 19.4227 6.6652 19.7606 6.6652 20.1129C6.6652 20.4651 6.80459 20.8031 7.05293 21.0529Z" fill="black"/>
</svg>
