<svg width="48" height="48" viewBox="0 0 48 48" fill="none" xmlns="http://www.w3.org/2000/svg">
<g clip-path="url(#clip0_1923_388)">
<path d="M47.9101 42.638C47.8321 42.3872 47.7054 42.1542 47.5374 41.9523C47.3694 41.7504 47.1632 41.5836 46.9307 41.4613C46.6981 41.3391 46.4438 41.2639 46.1822 41.24C45.9206 41.2161 45.6569 41.244 45.4061 41.322L42.8061 42.122L40.9441 36.648C42.8998 35.5506 44.4253 33.8221 45.2711 31.745C46.1169 29.668 46.2328 27.3655 45.6001 25.214L41.9141 14.264C41.4501 12.7691 40.4245 11.5124 39.053 10.7582C37.6815 10.004 36.0709 9.81106 34.5601 10.22L26.8561 12.368C25.7512 12.6754 24.7592 13.2965 24.0001 14.156C23.2409 13.2965 22.2489 12.6754 21.1441 12.368L13.4381 10.22C11.9382 9.8063 10.3364 9.98974 8.9689 10.7318C7.60141 11.474 6.57461 12.717 6.10407 14.2L2.37007 25.314C1.76211 27.4639 1.89827 29.7561 2.75648 31.8188C3.61469 33.8816 5.1446 35.5939 7.09807 36.678L5.21007 42.134L2.60007 41.322C2.34925 41.2432 2.08536 41.2146 1.82347 41.2378C1.56159 41.261 1.30684 41.3355 1.07376 41.4572C0.840686 41.5788 0.633853 41.7452 0.465071 41.9468C0.296289 42.1484 0.168864 42.3812 0.0900709 42.632C0.0112779 42.8829 -0.0173401 43.1467 0.00585101 43.4086C0.0290421 43.6705 0.103588 43.9253 0.225233 44.1583C0.346878 44.3914 0.513239 44.5982 0.714818 44.767C0.916397 44.9358 1.14925 45.0632 1.40007 45.142L5.72007 46.484C5.75007 46.484 5.76807 46.518 5.79807 46.53C5.82807 46.542 5.90207 46.542 5.95407 46.556L10.3161 47.91C10.8226 48.0676 11.371 48.0174 11.8406 47.7706C12.3102 47.5238 12.6625 47.1006 12.8201 46.594C12.9776 46.0875 12.9275 45.5391 12.6807 45.0695C12.4339 44.5999 12.0106 44.2476 11.5041 44.09L9.03207 43.32L10.9021 37.92C11.2729 37.9676 11.6462 37.9944 12.0201 38C14.1824 37.9947 16.2847 37.2886 18.0119 35.9876C19.7391 34.6867 20.9981 32.8609 21.6001 30.784L24.0001 23.672L26.3661 30.672C26.9493 32.7753 28.2046 34.63 29.9404 35.9532C31.6763 37.2763 33.7974 37.9951 35.9801 38C36.3686 37.9963 36.7566 37.9696 37.1421 37.92L38.9781 43.32L36.4901 44.092C35.9835 44.2496 35.5603 44.6019 35.3135 45.0715C35.0667 45.5411 35.0165 46.0895 35.1741 46.596C35.3316 47.1026 35.6839 47.5258 36.1535 47.7726C36.6231 48.0194 37.1715 48.0696 37.6781 47.912L42.0281 46.562C42.0801 46.548 42.1341 46.562 42.1861 46.536C42.2381 46.51 42.2381 46.498 42.2701 46.486L46.5941 45.144C46.8451 45.0661 47.0784 44.9394 47.2804 44.7712C47.4825 44.603 47.6494 44.3966 47.7716 44.1639C47.8938 43.9311 47.969 43.6766 47.9927 43.4147C48.0165 43.1529 47.9884 42.889 47.9101 42.638ZM26.7141 17.184C26.8413 16.9497 27.0146 16.7435 27.2236 16.5778C27.4325 16.4121 27.6729 16.2904 27.9301 16.22L35.6321 14.074C35.804 14.0259 35.9815 14.001 36.1601 14C36.5999 14.0047 37.0266 14.151 37.3767 14.4172C37.7269 14.6834 37.982 15.0554 38.1041 15.478L39.6261 20H26.9801L26.5501 18.726C26.4734 18.471 26.4484 18.2033 26.4765 17.9385C26.5047 17.6737 26.5854 17.4172 26.7141 17.184ZM11.8361 14C12.0151 14.0003 12.1934 14.0246 12.3661 14.072L20.0701 16.22C20.579 16.3604 21.0118 16.6963 21.2741 17.1545C21.5364 17.6127 21.6068 18.1561 21.4701 18.666L21.0201 20H8.37407L9.91407 15.42C10.0412 15.0093 10.2962 14.65 10.642 14.3946C10.9878 14.1391 11.4062 14.0008 11.8361 14ZM17.7841 29.6C17.4646 30.7416 16.8141 31.763 15.9147 32.5353C15.0153 33.3076 13.9073 33.7961 12.7305 33.9393C11.5537 34.0824 10.3609 33.8737 9.30256 33.3396C8.24425 32.8055 7.36788 31.9698 6.78407 30.938C6.01111 29.5902 5.80125 27.9917 6.20007 26.49L7.02807 24H19.6721L17.7841 29.6ZM33.0481 33.216C32.3473 32.8184 31.733 32.2846 31.2416 31.6461C30.7501 31.0076 30.3912 30.2772 30.1861 29.498L28.3281 24H40.9741L41.7741 26.388C42.0932 27.5317 42.0659 28.7443 41.6956 29.8724C41.3252 31.0006 40.6285 31.9934 39.6935 32.7254C38.7586 33.4573 37.6275 33.8954 36.4435 33.9841C35.2594 34.0729 34.0757 33.8084 33.0421 33.224L33.0481 33.216Z" fill="black"/>
<path d="M31.1061 7.79986C31.3422 7.91858 31.5995 7.98933 31.8632 8.00801C32.1268 8.02668 32.3915 7.99293 32.642 7.90868C32.8925 7.82443 33.1239 7.69137 33.3226 7.51718C33.5214 7.343 33.6837 7.13114 33.8001 6.89386L35.8001 2.89386C36.0372 2.41912 36.076 1.86964 35.908 1.36629C35.7399 0.862944 35.3788 0.446963 34.9041 0.209859C34.4293 -0.0272445 33.8799 -0.0660482 33.3765 0.101984C32.8732 0.270017 32.4572 0.631121 32.2201 1.10586L30.2201 5.10586C30.1007 5.34078 30.0288 5.597 30.0087 5.85977C29.9887 6.12255 30.0207 6.3867 30.103 6.63705C30.1854 6.8874 30.3164 7.119 30.4885 7.31856C30.6607 7.51811 30.8705 7.68168 31.1061 7.79986Z" fill="black"/>
<path d="M14.2096 6.89386C14.4467 7.36993 14.8632 7.7323 15.3675 7.90127C15.6172 7.98494 15.8809 8.01861 16.1437 8.00035C16.4064 7.98209 16.6629 7.91227 16.8986 7.79486C17.1343 7.67746 17.3446 7.51478 17.5175 7.31611C17.6903 7.11744 17.8224 6.88666 17.906 6.63697C17.9897 6.38727 18.0234 6.12354 18.0051 5.86083C17.9869 5.59812 17.917 5.34159 17.7996 5.10586L15.7996 1.10586C15.6822 0.870793 15.5197 0.661153 15.3213 0.488908C15.1228 0.316662 14.8924 0.185186 14.6432 0.101984C14.1398 -0.0660482 13.5904 -0.0272445 13.1156 0.209859C12.6409 0.446963 12.2798 0.862944 12.1117 1.36629C11.9437 1.86964 11.9825 2.41912 12.2196 2.89386L14.2096 6.89386Z" fill="black"/>
<path d="M24 8C24.5304 8 25.0391 7.78928 25.4142 7.41421C25.7893 7.03914 26 6.53043 26 6V2C26 1.46957 25.7893 0.960859 25.4142 0.585786C25.0391 0.210714 24.5304 0 24 0C23.4696 0 22.9609 0.210714 22.5858 0.585786C22.2107 0.960859 22 1.46957 22 2V6C22 6.53043 22.2107 7.03914 22.5858 7.41421C22.9609 7.78928 23.4696 8 24 8Z" fill="black"/>
</g>
<defs>
<clipPath id="clip0_1923_388">
<rect width="48" height="48" fill="white"/>
</clipPath>
</defs>
</svg>
