<svg width="49" height="48" viewBox="0 0 49 48" fill="none" xmlns="http://www.w3.org/2000/svg">
<g clip-path="url(#clip0_1923_352)">
<path d="M46.6621 44.0042H44.6621V28.0042C44.6589 25.353 43.6043 22.8113 41.7297 20.9367C39.855 19.062 37.3133 18.0074 34.6621 18.0042H26.6621V12.0822C27.5531 11.6934 28.3113 11.0532 28.8442 10.2402C29.377 9.42709 29.6612 8.47632 29.6621 7.50422C29.1218 4.94776 27.9048 2.58338 26.1381 0.658211C25.9507 0.45327 25.7227 0.289599 25.4686 0.177621C25.2145 0.065643 24.9398 0.0078125 24.6621 0.0078125C24.3844 0.0078125 24.1098 0.065643 23.8556 0.177621C23.6015 0.289599 23.3735 0.45327 23.1861 0.658211C21.4195 2.58338 20.2024 4.94776 19.6621 7.50422C19.663 8.47632 19.9472 9.42709 20.4801 10.2402C21.0129 11.0532 21.7712 11.6934 22.6621 12.0822V18.0042H14.6621C12.0109 18.0074 9.46922 19.062 7.59455 20.9367C5.71987 22.8113 4.66529 25.353 4.66211 28.0042V44.0042H2.66211C2.13168 44.0042 1.62297 44.215 1.2479 44.59C0.872823 44.9651 0.662109 45.4738 0.662109 46.0042C0.662109 46.5347 0.872823 47.0434 1.2479 47.4185C1.62297 47.7935 2.13168 48.0042 2.66211 48.0042H46.6621C47.1925 48.0042 47.7013 47.7935 48.0763 47.4185C48.4514 47.0434 48.6621 46.5347 48.6621 46.0042C48.6621 45.4738 48.4514 44.9651 48.0763 44.59C47.7013 44.215 47.1925 44.0042 46.6621 44.0042ZM14.6621 22.0042H34.6621C36.2534 22.0042 37.7795 22.6364 38.9048 23.7616C40.03 24.8868 40.6621 26.4129 40.6621 28.0042V31.9642C38.7901 31.7642 37.6621 30.5642 37.6621 30.0042C37.6621 29.4738 37.4514 28.9651 37.0763 28.59C36.7013 28.2149 36.1925 28.0042 35.6621 28.0042C35.1317 28.0042 34.623 28.2149 34.2479 28.59C33.8728 28.9651 33.6621 29.4738 33.6621 30.0042C33.6621 30.6902 32.2981 32.0042 30.1621 32.0042C27.9841 32.0042 26.6621 30.6162 26.6621 30.0042C26.6621 29.4738 26.4514 28.9651 26.0763 28.59C25.7013 28.2149 25.1925 28.0042 24.6621 28.0042C24.1317 28.0042 23.623 28.2149 23.2479 28.59C22.8728 28.9651 22.6621 29.4738 22.6621 30.0042C22.6621 30.6902 21.2981 32.0042 19.1621 32.0042C16.9841 32.0042 15.6621 30.6162 15.6621 30.0042C15.6621 29.4738 15.4514 28.9651 15.0763 28.59C14.7013 28.2149 14.1925 28.0042 13.6621 28.0042C13.1317 28.0042 12.623 28.2149 12.2479 28.59C11.8728 28.9651 11.6621 29.4738 11.6621 30.0042C11.6621 30.6342 10.5041 31.7802 8.66211 31.9662V28.0042C8.66211 26.4129 9.29425 24.8868 10.4195 23.7616C11.5447 22.6364 13.0708 22.0042 14.6621 22.0042ZM8.66211 35.9622C10.4995 35.8807 12.258 35.1921 13.6621 34.0042C15.2048 35.2902 17.1483 35.997 19.1567 36.0025C21.1651 36.008 23.1124 35.3118 24.6621 34.0342C26.2118 35.3118 28.1591 36.008 30.1675 36.0025C32.1759 35.997 34.1194 35.2902 35.6621 34.0042C37.0665 35.1914 38.825 35.8793 40.6621 35.9602V44.0042H8.66211V35.9622Z" fill="black"/>
</g>
<defs>
<clipPath id="clip0_1923_352">
<rect width="48" height="48" fill="white" transform="translate(0.662109)"/>
</clipPath>
</defs>
</svg>
