<svg width="49" height="48" viewBox="0 0 49 48" fill="none" xmlns="http://www.w3.org/2000/svg">
<path d="M24.6623 32C22.5406 32 20.5057 31.1571 19.0054 29.6568C17.5051 28.1565 16.6623 26.1217 16.6623 24C16.6623 21.8782 17.5051 19.8434 19.0054 18.3431C20.5057 16.8428 22.5406 16 24.6623 16C26.784 16 28.8188 16.8428 30.3191 18.3431C31.8194 19.8434 32.6623 21.8782 32.6623 24C32.6623 26.1217 31.8194 28.1565 30.3191 29.6568C28.8188 31.1571 26.784 32 24.6623 32ZM24.6623 20C23.6014 20 22.584 20.4214 21.8339 21.1715C21.0837 21.9217 20.6623 22.9391 20.6623 24C20.6623 25.0608 21.0837 26.0782 21.8339 26.8284C22.584 27.5785 23.6014 28 24.6623 28C25.7232 28 26.7406 27.5785 27.4907 26.8284C28.2409 26.0782 28.6623 25.0608 28.6623 24C28.6623 22.9391 28.2409 21.9217 27.4907 21.1715C26.7406 20.4214 25.7232 20 24.6623 20ZM24.6623 48C22.4806 47.9977 20.3594 47.283 18.6211 45.9646C16.8828 44.6462 15.6227 42.7962 15.0323 40.696C12.9216 41.162 10.7173 40.942 8.7404 40.0679C6.76352 39.1939 5.11737 37.7114 4.04177 35.8365C2.96616 33.9616 2.51731 31.7923 2.76059 29.6445C3.00387 27.4967 3.92658 25.4828 5.39428 23.896C-1.40571 16.874 5.41229 4.69595 15.0623 7.19795C15.6847 5.13626 16.9544 3.32974 18.6833 2.04571C20.4123 0.761674 22.5087 0.0683594 24.6623 0.0683594C26.8159 0.0683594 28.9123 0.761674 30.6412 2.04571C32.3702 3.32974 33.6398 5.13626 34.2623 7.19795C44.0623 4.76595 50.6623 16.824 43.9203 23.982C50.7363 31.058 43.9423 42.866 34.2923 40.696C33.7019 42.7962 32.4417 44.6462 30.7035 45.9646C28.9652 47.283 26.844 47.9977 24.6623 48ZM16.6623 36C17.1927 36 17.7014 36.2107 18.0765 36.5857C18.4516 36.9608 18.6623 37.4695 18.6623 38C18.6623 39.5913 19.2944 41.1174 20.4196 42.2426C21.5449 43.3678 23.071 44 24.6623 44C26.2536 44 27.7797 43.3678 28.9049 42.2426C30.0301 41.1174 30.6623 39.5913 30.6623 38C30.6621 37.6476 30.755 37.3015 30.9316 36.9966C31.1082 36.6917 31.3622 36.4389 31.6679 36.2637C31.9736 36.0886 32.3201 35.9973 32.6725 35.9991C33.0248 36.0008 33.3704 36.0957 33.6743 36.274C40.6063 39.624 46.4743 29.91 39.7063 25.756C39.394 25.5813 39.1339 25.3265 38.9529 25.0178C38.7719 24.7092 38.6764 24.3578 38.6764 24C38.6764 23.6421 38.7719 23.2908 38.9529 22.9821C39.1339 22.6734 39.394 22.4186 39.7063 22.244C46.3323 18.226 40.7503 7.80595 33.6683 11.736C33.3638 11.9132 33.0179 12.0068 32.6656 12.0074C32.3133 12.008 31.9671 11.9155 31.6621 11.7393C31.357 11.5631 31.1039 11.3095 30.9283 11.0041C30.7527 10.6986 30.661 10.3522 30.6623 9.99995C30.6623 8.40865 30.0301 6.88253 28.9049 5.75731C27.7797 4.63209 26.2536 3.99995 24.6623 3.99995C23.071 3.99995 21.5449 4.63209 20.4196 5.75731C19.2944 6.88253 18.6623 8.40865 18.6623 9.99995C18.663 10.3514 18.5711 10.6967 18.3958 11.0013C18.2206 11.3059 17.9682 11.559 17.664 11.735C17.3598 11.911 17.0147 12.0037 16.6633 12.0039C16.3119 12.0041 15.9666 11.9117 15.6623 11.736C8.66229 7.81595 2.93829 18.16 9.61829 22.14C9.93054 22.3149 10.1905 22.5699 10.3715 22.8787C10.5524 23.1876 10.6478 23.539 10.6478 23.897C10.6478 24.2549 10.5524 24.6063 10.3715 24.9152C10.1905 25.224 9.93054 25.479 9.61829 25.654C2.92229 29.88 8.59029 39.6 15.6503 36.274C15.9573 36.0943 16.3066 35.9997 16.6623 36Z" fill="black"/>
</svg>
