<svg width="49" height="48" viewBox="0 0 49 48" fill="none" xmlns="http://www.w3.org/2000/svg">
<g clip-path="url(#clip0_1923_367)">
<path d="M11.6621 14C15.5221 14 18.6621 10.86 18.6621 7C18.6621 3.14 15.5221 0 11.6621 0C7.80211 0 4.66211 3.14 4.66211 7C4.66211 10.86 7.80211 14 11.6621 14ZM11.6621 4C13.3161 4 14.6621 5.346 14.6621 7C14.6621 8.654 13.3161 10 11.6621 10C10.0081 10 8.66211 8.654 8.66211 7C8.66211 5.346 10.0081 4 11.6621 4ZM10.6621 20C7.35411 20 4.66211 22.692 4.66211 26C4.66211 27.106 3.76611 28 2.66211 28C1.55811 28 0.662109 27.106 0.662109 26C0.662109 20.486 5.14811 16 10.6621 16C11.7661 16 12.6621 16.894 12.6621 18C12.6621 19.106 11.7661 20 10.6621 20ZM24.6621 34C24.6621 35.106 23.7661 36 22.6621 36H20.6621C17.3541 36 14.6621 38.692 14.6621 42C14.6621 43.106 13.7661 44 12.6621 44C11.5581 44 10.6621 43.106 10.6621 42C10.6621 36.486 15.1481 32 20.6621 32H22.6621C23.7661 32 24.6621 32.894 24.6621 34ZM31.6621 14C35.5221 14 38.6621 10.86 38.6621 7C38.6621 3.14 35.5221 0 31.6621 0C27.8021 0 24.6621 3.14 24.6621 7C24.6621 10.86 27.8021 14 31.6621 14ZM31.6621 4C33.3161 4 34.6621 5.346 34.6621 7C34.6621 8.654 33.3161 10 31.6621 10C30.0081 10 28.6621 8.654 28.6621 7C28.6621 5.346 30.0081 4 31.6621 4ZM32.6621 16C36.2201 16 39.5401 17.916 41.3241 20.998C41.8761 21.956 41.5501 23.178 40.5941 23.73C40.2801 23.914 39.9341 24 39.5941 24C38.9041 24 38.2321 23.642 37.8601 23.002C36.7901 21.15 34.7981 20 32.6621 20C31.5581 20 30.6621 19.106 30.6621 18C30.6621 16.894 31.5581 16 32.6621 16ZM48.6621 38C48.6621 39.106 47.7661 40 46.6621 40H40.6621V46C40.6621 47.106 39.7661 48 38.6621 48C37.5581 48 36.6621 47.106 36.6621 46V40H30.6621C29.5581 40 28.6621 39.106 28.6621 38C28.6621 36.894 29.5581 36 30.6621 36H36.6621V30C36.6621 28.894 37.5581 28 38.6621 28C39.7661 28 40.6621 28.894 40.6621 30V36H46.6621C47.7661 36 48.6621 36.894 48.6621 38ZM21.6621 16C17.8021 16 14.6621 19.14 14.6621 23C14.6621 26.86 17.8021 30 21.6621 30C25.5221 30 28.6621 26.86 28.6621 23C28.6621 19.14 25.5221 16 21.6621 16ZM21.6621 26C20.0081 26 18.6621 24.654 18.6621 23C18.6621 21.346 20.0081 20 21.6621 20C23.3161 20 24.6621 21.346 24.6621 23C24.6621 24.654 23.3161 26 21.6621 26Z" fill="black"/>
</g>
<defs>
<clipPath id="clip0_1923_367">
<rect width="48" height="48" fill="white" transform="translate(0.662109)"/>
</clipPath>
</defs>
</svg>
