<svg width="1180" height="25" viewBox="0 0 1180 25" fill="none" xmlns="http://www.w3.org/2000/svg">
<path d="M14.69 6.676C14.1873 5.75733 13.546 5.09 12.766 4.674C12.0033 4.24067 11.1453 4.024 10.192 4.024C9.18667 4.024 8.27667 4.284 7.462 4.804C6.66467 5.30667 6.032 6 5.564 6.884C5.11333 7.768 4.888 8.77333 4.888 9.9C4.888 11.0787 5.11333 12.11 5.564 12.994C6.01467 13.8607 6.64733 14.5453 7.462 15.048C8.27667 15.5333 9.23 15.776 10.322 15.776C10.998 15.776 11.622 15.6633 12.194 15.438C12.766 15.1953 13.2773 14.866 13.728 14.45C14.1787 14.034 14.56 13.5573 14.872 13.02V11.876H10.192V8.704H18.642V13.748C18.226 14.7013 17.6193 15.594 16.822 16.426C16.0247 17.2407 15.0627 17.908 13.936 18.428C12.8093 18.9307 11.5267 19.182 10.088 19.182C8.736 19.182 7.49667 18.9567 6.37 18.506C5.24333 18.0553 4.264 17.414 3.432 16.582C2.6 15.75 1.95 14.7707 1.482 13.644C1.03133 12.5 0.806 11.252 0.806 9.9C0.806 8.548 1.03133 7.30867 1.482 6.182C1.95 5.038 2.59133 4.05 3.406 3.218C4.238 2.386 5.21733 1.74467 6.344 1.294C7.47067 0.843333 8.71 0.618 10.062 0.618C11.3273 0.618 12.5147 0.817333 13.624 1.216C14.7507 1.61467 15.73 2.19533 16.562 2.958C17.394 3.70333 18.0093 4.61333 18.408 5.688L14.69 6.676ZM32.8356 19H29.3776L29.1176 17.57C28.6842 18.0553 28.1729 18.4453 27.5836 18.74C27.0116 19.0347 26.3789 19.182 25.6856 19.182C24.7149 19.182 23.8742 18.9653 23.1636 18.532C22.4529 18.0987 21.8982 17.466 21.4996 16.634C21.1009 15.7847 20.9016 14.7707 20.9016 13.592V6H24.6976V13.124C24.6976 13.9907 24.8709 14.6493 25.2176 15.1C25.5816 15.5507 26.1276 15.776 26.8556 15.776C27.5489 15.776 28.0862 15.542 28.4676 15.074C28.8489 14.606 29.0396 13.9387 29.0396 13.072V6H32.8356V19ZM41.7653 19.182C40.4307 19.182 39.2693 18.9047 38.2813 18.35C37.2933 17.778 36.522 16.9807 35.9673 15.958C35.43 14.9353 35.1613 13.7393 35.1613 12.37C35.1613 11.1047 35.43 9.978 35.9673 8.99C36.5047 8.002 37.2587 7.23067 38.2293 6.676C39.2 6.104 40.3007 5.818 41.5313 5.818C42.8313 5.818 43.958 6.08667 44.9113 6.624C45.8647 7.144 46.61 7.88933 47.1473 8.86C47.6847 9.83067 47.9533 10.9573 47.9533 12.24C47.9533 12.448 47.9447 12.6647 47.9273 12.89C47.91 13.1153 47.884 13.3667 47.8493 13.644H39.2173C39.304 14.112 39.4687 14.5193 39.7113 14.866C39.954 15.1953 40.2573 15.4553 40.6213 15.646C41.0027 15.8193 41.436 15.906 41.9213 15.906C42.4587 15.906 42.944 15.7933 43.3773 15.568C43.8107 15.3427 44.1313 15.022 44.3393 14.606L47.7453 15.542C47.2253 16.7033 46.4453 17.6047 45.4053 18.246C44.3653 18.87 43.152 19.182 41.7653 19.182ZM43.8193 11.174C43.802 10.7407 43.6893 10.3593 43.4813 10.03C43.2733 9.70067 43.0047 9.44067 42.6753 9.25C42.346 9.05933 41.982 8.97267 41.5833 8.99C41.1847 9.00733 40.8207 9.11133 40.4913 9.302C40.1793 9.47533 39.9107 9.72667 39.6853 10.056C39.46 10.368 39.3213 10.7407 39.2693 11.174H43.8193ZM53.1168 14.736C53.2034 15.0653 53.3421 15.334 53.5328 15.542C53.7408 15.7327 53.9834 15.8713 54.2608 15.958C54.5381 16.0447 54.8241 16.088 55.1188 16.088C55.6561 16.088 56.0721 15.9927 56.3668 15.802C56.6614 15.6113 56.8088 15.3687 56.8088 15.074C56.8088 14.7793 56.6961 14.5627 56.4708 14.424C56.2628 14.268 55.9854 14.1467 55.6388 14.06C55.2921 13.956 54.9281 13.8607 54.5468 13.774C54.1134 13.67 53.6281 13.5487 53.0908 13.41C52.5534 13.254 52.0421 13.046 51.5568 12.786C51.0714 12.5087 50.6728 12.1447 50.3608 11.694C50.0488 11.226 49.8928 10.6453 49.8928 9.952C49.8928 9.15467 50.1094 8.444 50.5428 7.82C50.9761 7.196 51.5914 6.71067 52.3888 6.364C53.1861 6 54.1308 5.818 55.2228 5.818C56.5748 5.818 57.6754 6.09533 58.5248 6.65C59.3741 7.20467 59.9721 7.98467 60.3188 8.99L57.0168 9.822C56.9301 9.59667 56.8001 9.42333 56.6268 9.302C56.4534 9.16333 56.2368 9.068 55.9768 9.016C55.7341 8.94667 55.4914 8.912 55.2488 8.912C54.7981 8.912 54.4428 8.99867 54.1828 9.172C53.9228 9.34533 53.7928 9.562 53.7928 9.822C53.7928 9.99533 53.8448 10.1427 53.9488 10.264C54.0701 10.3853 54.2261 10.4807 54.4168 10.55C54.6248 10.6193 54.8588 10.68 55.1188 10.732C55.3961 10.784 55.6908 10.8533 56.0028 10.94C56.5228 11.0613 57.0514 11.2087 57.5888 11.382C58.1434 11.5553 58.6548 11.7893 59.1228 12.084C59.6081 12.3613 59.9894 12.7427 60.2668 13.228C60.5614 13.696 60.7174 14.3027 60.7348 15.048C60.7348 15.8107 60.5181 16.5127 60.0848 17.154C59.6514 17.778 59.0188 18.272 58.1868 18.636C57.3548 19 56.3408 19.182 55.1448 19.182C53.7061 19.182 52.5014 18.8873 51.5308 18.298C50.5601 17.7087 49.9448 16.7987 49.6848 15.568L53.1168 14.736ZM64.0423 6V2.36H67.9163V6H70.5943V9.354H67.9163V14.034C67.9163 14.6233 68.0463 15.0393 68.3063 15.282C68.5836 15.5247 68.9303 15.6547 69.3463 15.672C69.7623 15.672 70.1783 15.6373 70.5943 15.568V18.87C69.7103 19.026 68.8696 19.0693 68.0723 19C67.2749 18.948 66.5729 18.74 65.9663 18.376C65.3769 18.012 64.9089 17.4747 64.5623 16.764C64.2156 16.0533 64.0423 15.1433 64.0423 14.034V9.354H62.2223V6H64.0423ZM72.4675 10.03H83.6995V13.41H72.4675V10.03ZM95.0716 19.182C93.7716 19.182 92.5583 18.9567 91.4316 18.506C90.305 18.0553 89.317 17.4227 88.4676 16.608C87.6183 15.776 86.951 14.7967 86.4656 13.67C85.9803 12.526 85.7376 11.2693 85.7376 9.9C85.7376 8.53067 85.9803 7.28267 86.4656 6.156C86.951 5.012 87.6183 4.03267 88.4676 3.218C89.317 2.386 90.305 1.74467 91.4316 1.294C92.5583 0.843333 93.7716 0.618 95.0716 0.618C96.3543 0.618 97.559 0.843333 98.6856 1.294C99.8296 1.74467 100.818 2.386 101.65 3.218C102.499 4.03267 103.166 5.012 103.652 6.156C104.137 7.28267 104.38 8.53067 104.38 9.9C104.38 11.2693 104.137 12.526 103.652 13.67C103.166 14.7967 102.499 15.776 101.65 16.608C100.8 17.4227 99.8123 18.0553 98.6856 18.506C97.559 18.9567 96.3543 19.182 95.0716 19.182ZM95.0716 15.75C96.0943 15.75 96.9956 15.5073 97.7756 15.022C98.573 14.5193 99.1883 13.826 99.6216 12.942C100.072 12.058 100.298 11.044 100.298 9.9C100.298 8.73867 100.072 7.72467 99.6216 6.858C99.1883 5.974 98.573 5.28933 97.7756 4.804C96.9956 4.30133 96.0943 4.05 95.0716 4.05C94.0143 4.05 93.0956 4.30133 92.3156 4.804C91.5356 5.28933 90.9203 5.974 90.4696 6.858C90.0363 7.72467 89.8196 8.73867 89.8196 9.9C89.8196 11.044 90.0363 12.058 90.4696 12.942C90.9203 13.826 91.5356 14.5193 92.3156 15.022C93.0956 15.5073 94.0143 15.75 95.0716 15.75ZM106.624 6H110.056L110.316 7.404C110.749 6.936 111.261 6.55467 111.85 6.26C112.439 5.96533 113.081 5.818 113.774 5.818C114.797 5.818 115.655 6.03467 116.348 6.468C117.059 6.90133 117.596 7.534 117.96 8.366C118.341 9.198 118.532 10.212 118.532 11.408V19H114.736V11.876C114.736 11.0093 114.554 10.3507 114.19 9.9C113.843 9.44933 113.315 9.224 112.604 9.224C111.876 9.224 111.33 9.458 110.966 9.926C110.602 10.3767 110.42 11.0353 110.42 11.902V19H106.624V6ZM121.274 0.279999H125.07V19H121.274V0.279999ZM136.896 6H141.004L133.308 24.2H129.434L132.008 18.402L126.86 6H131.098L133.984 13.774L136.896 6ZM163.508 4.154H154.304V8.184H161.194V11.382H154.304V15.646H163.508V19H150.274V0.799999H163.508V4.154ZM165.154 6H169.626L172.07 9.77L174.488 6H178.934L174.358 12.474L178.934 19H174.488L172.07 15.23L169.626 19H165.154L169.756 12.474L165.154 6ZM186.843 19.182C185.578 19.1993 184.46 18.9307 183.489 18.376C182.518 17.804 181.764 17.024 181.227 16.036C180.69 15.0307 180.421 13.8607 180.421 12.526C180.421 11.2087 180.69 10.0473 181.227 9.042C181.764 8.01933 182.518 7.23067 183.489 6.676C184.46 6.104 185.578 5.818 186.843 5.818C188.282 5.818 189.538 6.182 190.613 6.91C191.705 7.62067 192.468 8.6 192.901 9.848L189.313 10.732C189.14 10.264 188.854 9.9 188.455 9.64C188.056 9.38 187.597 9.25 187.077 9.25C186.557 9.25 186.098 9.38867 185.699 9.666C185.3 9.94333 184.988 10.3333 184.763 10.836C184.555 11.3213 184.451 11.8847 184.451 12.526C184.451 13.4967 184.694 14.2767 185.179 14.866C185.664 15.4553 186.297 15.75 187.077 15.75C187.58 15.75 188.03 15.6287 188.429 15.386C188.828 15.126 189.14 14.762 189.365 14.294L192.927 15.204C192.494 16.4 191.722 17.362 190.613 18.09C189.521 18.8007 188.264 19.1647 186.843 19.182ZM195.237 0.279999H199.033V19H195.237V0.279999ZM213.693 19H210.235L209.975 17.57C209.542 18.0553 209.03 18.4453 208.441 18.74C207.869 19.0347 207.236 19.182 206.543 19.182C205.572 19.182 204.732 18.9653 204.021 18.532C203.31 18.0987 202.756 17.466 202.357 16.634C201.958 15.7847 201.759 14.7707 201.759 13.592V6H205.555V13.124C205.555 13.9907 205.728 14.6493 206.075 15.1C206.439 15.5507 206.985 15.776 207.713 15.776C208.406 15.776 208.944 15.542 209.325 15.074C209.706 14.606 209.897 13.9387 209.897 13.072V6H213.693V19ZM219.451 14.736C219.537 15.0653 219.676 15.334 219.867 15.542C220.075 15.7327 220.317 15.8713 220.595 15.958C220.872 16.0447 221.158 16.088 221.453 16.088C221.99 16.088 222.406 15.9927 222.701 15.802C222.995 15.6113 223.143 15.3687 223.143 15.074C223.143 14.7793 223.03 14.5627 222.805 14.424C222.597 14.268 222.319 14.1467 221.973 14.06C221.626 13.956 221.262 13.8607 220.881 13.774C220.447 13.67 219.962 13.5487 219.425 13.41C218.887 13.254 218.376 13.046 217.891 12.786C217.405 12.5087 217.007 12.1447 216.695 11.694C216.383 11.226 216.227 10.6453 216.227 9.952C216.227 9.15467 216.443 8.444 216.877 7.82C217.31 7.196 217.925 6.71067 218.723 6.364C219.52 6 220.465 5.818 221.557 5.818C222.909 5.818 224.009 6.09533 224.859 6.65C225.708 7.20467 226.306 7.98467 226.653 8.99L223.351 9.822C223.264 9.59667 223.134 9.42333 222.961 9.302C222.787 9.16333 222.571 9.068 222.311 9.016C222.068 8.94667 221.825 8.912 221.583 8.912C221.132 8.912 220.777 8.99867 220.517 9.172C220.257 9.34533 220.127 9.562 220.127 9.822C220.127 9.99533 220.179 10.1427 220.283 10.264C220.404 10.3853 220.56 10.4807 220.751 10.55C220.959 10.6193 221.193 10.68 221.453 10.732C221.73 10.784 222.025 10.8533 222.337 10.94C222.857 11.0613 223.385 11.2087 223.923 11.382C224.477 11.5553 224.989 11.7893 225.457 12.084C225.942 12.3613 226.323 12.7427 226.601 13.228C226.895 13.696 227.051 14.3027 227.069 15.048C227.069 15.8107 226.852 16.5127 226.419 17.154C225.985 17.778 225.353 18.272 224.521 18.636C223.689 19 222.675 19.182 221.479 19.182C220.04 19.182 218.835 18.8873 217.865 18.298C216.894 17.7087 216.279 16.7987 216.019 15.568L219.451 14.736ZM229.856 6H233.652V19H229.856V6ZM231.754 4.674C231.044 4.674 230.463 4.466 230.012 4.05C229.579 3.61667 229.362 3.09667 229.362 2.49C229.362 1.866 229.579 1.346 230.012 0.929999C230.463 0.496666 231.044 0.279999 231.754 0.279999C232.448 0.279999 233.011 0.496666 233.444 0.929999C233.895 1.346 234.12 1.866 234.12 2.49C234.12 3.09667 233.895 3.61667 233.444 4.05C233.011 4.466 232.448 4.674 231.754 4.674ZM240.125 6L242.881 14.528L245.637 6H249.719L244.987 19H240.749L236.043 6H240.125ZM252.149 6H255.945V19H252.149V6ZM254.047 4.674C253.337 4.674 252.756 4.466 252.305 4.05C251.872 3.61667 251.655 3.09667 251.655 2.49C251.655 1.866 251.872 1.346 252.305 0.929999C252.756 0.496666 253.337 0.279999 254.047 0.279999C254.741 0.279999 255.304 0.496666 255.737 0.929999C256.188 1.346 256.413 1.866 256.413 2.49C256.413 3.09667 256.188 3.61667 255.737 4.05C255.304 4.466 254.741 4.674 254.047 4.674ZM260.312 6V2.36H264.186V6H266.864V9.354H264.186V14.034C264.186 14.6233 264.316 15.0393 264.576 15.282C264.853 15.5247 265.2 15.6547 265.616 15.672C266.032 15.672 266.448 15.6373 266.864 15.568V18.87C265.98 19.026 265.139 19.0693 264.342 19C263.544 18.948 262.842 18.74 262.236 18.376C261.646 18.012 261.178 17.4747 260.832 16.764C260.485 16.0533 260.312 15.1433 260.312 14.034V9.354H258.492V6H260.312ZM277.941 6H282.049L274.353 24.2H270.479L273.053 18.402L267.905 6H272.143L275.029 13.774L277.941 6ZM315.234 19.208C314.506 19.208 313.916 18.9913 313.466 18.558C313.015 18.1073 312.79 17.5613 312.79 16.92C312.79 16.296 313.015 15.7673 313.466 15.334C313.916 14.8833 314.506 14.658 315.234 14.658C315.944 14.658 316.525 14.8833 316.976 15.334C317.426 15.7673 317.652 16.296 317.652 16.92C317.652 17.5613 317.426 18.1073 316.976 18.558C316.525 18.9913 315.944 19.208 315.234 19.208ZM360.327 6.156C360.327 5.48 360.111 4.97733 359.677 4.648C359.244 4.31867 358.629 4.154 357.831 4.154H353.645V8.158H357.805C358.603 8.158 359.218 7.99333 359.651 7.664C360.102 7.33467 360.327 6.832 360.327 6.156ZM349.615 19V0.799999H358.533C359.799 0.799999 360.865 1.008 361.731 1.424C362.598 1.82267 363.257 2.386 363.707 3.114C364.175 3.82467 364.409 4.648 364.409 5.584C364.409 6.39867 364.253 7.08333 363.941 7.638C363.647 8.17533 363.231 8.60867 362.693 8.938C362.173 9.25 361.575 9.46667 360.899 9.588V9.796C361.714 9.9 362.416 10.1253 363.005 10.472C363.595 10.8187 364.045 11.2953 364.357 11.902C364.669 12.4913 364.825 13.2107 364.825 14.06C364.825 15.0307 364.591 15.8887 364.123 16.634C363.655 17.3793 362.979 17.96 362.095 18.376C361.211 18.792 360.128 19 358.845 19H349.615ZM353.645 15.646H358.195C359.01 15.646 359.643 15.464 360.093 15.1C360.561 14.736 360.795 14.2073 360.795 13.514C360.795 12.786 360.553 12.2487 360.067 11.902C359.582 11.538 358.932 11.356 358.117 11.356H353.645V15.646ZM379.581 0.799999H384.157L377.293 12.812V19H373.263V12.838L366.399 0.799999H370.975L375.291 8.782L379.581 0.799999ZM394.808 19.182C393.508 19.182 392.295 18.9567 391.168 18.506C390.041 18.0553 389.053 17.4227 388.204 16.608C387.355 15.776 386.687 14.7967 386.202 13.67C385.717 12.526 385.474 11.2693 385.474 9.9C385.474 8.53067 385.717 7.28267 386.202 6.156C386.687 5.012 387.355 4.03267 388.204 3.218C389.053 2.386 390.041 1.74467 391.168 1.294C392.295 0.843333 393.508 0.618 394.808 0.618C396.091 0.618 397.295 0.843333 398.422 1.294C399.566 1.74467 400.554 2.386 401.386 3.218C402.235 4.03267 402.903 5.012 403.388 6.156C403.873 7.28267 404.116 8.53067 404.116 9.9C404.116 11.2693 403.873 12.526 403.388 13.67C402.903 14.7967 402.235 15.776 401.386 16.608C400.537 17.4227 399.549 18.0553 398.422 18.506C397.295 18.9567 396.091 19.182 394.808 19.182ZM394.808 15.75C395.831 15.75 396.732 15.5073 397.512 15.022C398.309 14.5193 398.925 13.826 399.358 12.942C399.809 12.058 400.034 11.044 400.034 9.9C400.034 8.73867 399.809 7.72467 399.358 6.858C398.925 5.974 398.309 5.28933 397.512 4.804C396.732 4.30133 395.831 4.05 394.808 4.05C393.751 4.05 392.832 4.30133 392.052 4.804C391.272 5.28933 390.657 5.974 390.206 6.858C389.773 7.72467 389.556 8.73867 389.556 9.9C389.556 11.044 389.773 12.058 390.206 12.942C390.657 13.826 391.272 14.5193 392.052 15.022C392.832 15.5073 393.751 15.75 394.808 15.75ZM417.202 6.156C417.202 5.48 416.986 4.97733 416.552 4.648C416.119 4.31867 415.504 4.154 414.706 4.154H410.52V8.158H414.68C415.478 8.158 416.093 7.99333 416.526 7.664C416.977 7.33467 417.202 6.832 417.202 6.156ZM406.49 19V0.799999H415.408C416.674 0.799999 417.74 1.008 418.606 1.424C419.473 1.82267 420.132 2.386 420.582 3.114C421.05 3.82467 421.284 4.648 421.284 5.584C421.284 6.39867 421.128 7.08333 420.816 7.638C420.522 8.17533 420.106 8.60867 419.568 8.938C419.048 9.25 418.45 9.46667 417.774 9.588V9.796C418.589 9.9 419.291 10.1253 419.88 10.472C420.47 10.8187 420.92 11.2953 421.232 11.902C421.544 12.4913 421.7 13.2107 421.7 14.06C421.7 15.0307 421.466 15.8887 420.998 16.634C420.53 17.3793 419.854 17.96 418.97 18.376C418.086 18.792 417.003 19 415.72 19H406.49ZM410.52 15.646H415.07C415.885 15.646 416.518 15.464 416.968 15.1C417.436 14.736 417.67 14.2073 417.67 13.514C417.67 12.786 417.428 12.2487 416.942 11.902C416.457 11.538 415.807 11.356 414.992 11.356H410.52V15.646ZM439.687 4.804C439.496 4.57867 439.254 4.39667 438.959 4.258C438.664 4.11933 438.292 4.05 437.841 4.05C437.113 4.05 436.567 4.258 436.203 4.674C435.839 5.07267 435.657 5.61 435.657 6.286C435.657 6.82333 435.804 7.23933 436.099 7.534C436.394 7.81133 436.775 8.01067 437.243 8.132C437.728 8.236 438.283 8.288 438.907 8.288H445.641V11.382H438.907C437.659 11.382 436.74 11.538 436.151 11.85C435.579 12.1447 435.293 12.7253 435.293 13.592C435.293 14.0427 435.38 14.4327 435.553 14.762C435.726 15.074 435.986 15.3167 436.333 15.49C436.68 15.6633 437.122 15.75 437.659 15.75C438.543 15.75 439.158 15.5333 439.505 15.1C439.869 14.6667 440.051 13.982 440.051 13.046V9.146H443.977V13.046C443.977 14.5193 443.708 15.7067 443.171 16.608C442.634 17.5093 441.88 18.168 440.909 18.584C439.938 18.9827 438.812 19.182 437.529 19.182C436.212 19.182 435.085 18.9653 434.149 18.532C433.23 18.0813 432.528 17.466 432.043 16.686C431.558 15.8887 431.315 14.97 431.315 13.93C431.315 13.1327 431.445 12.4653 431.705 11.928C431.982 11.3733 432.364 10.9227 432.849 10.576C433.334 10.212 433.889 9.926 434.513 9.718V9.614C434.08 9.47533 433.638 9.25 433.187 8.938C432.754 8.60867 432.39 8.184 432.095 7.664C431.8 7.12667 431.653 6.48533 431.653 5.74C431.653 4.78667 431.887 3.92867 432.355 3.166C432.823 2.386 433.508 1.77067 434.409 1.32C435.31 0.852 436.42 0.618 437.737 0.618C438.829 0.618 439.808 0.782666 440.675 1.112C441.542 1.44133 442.252 1.918 442.807 2.542L439.687 4.804ZM442.807 2.542L439.687 4.804L442.807 2.542ZM438.907 8.288C439.184 8.288 439.427 8.236 439.635 8.132C439.843 8.028 439.999 7.85467 440.103 7.612C440.224 7.36933 440.285 7.05733 440.285 6.676V5.61H444.107V8.288H446.759V11.382H444.107V14.034C444.107 14.6407 444.237 15.0653 444.497 15.308C444.774 15.5333 445.173 15.646 445.693 15.646C445.814 15.6633 445.97 15.6633 446.161 15.646C446.352 15.6287 446.56 15.6027 446.785 15.568V18.87C446.456 18.922 446.135 18.9653 445.823 19C445.528 19.052 445.251 19.078 444.991 19.078C444.124 19.078 443.31 18.922 442.547 18.61C441.802 18.2807 441.195 17.752 440.727 17.024C440.276 16.2787 440.051 15.282 440.051 14.034V11.356H438.179V8.288H438.907ZM467.425 6.156C467.425 5.48 467.208 4.97733 466.775 4.648C466.342 4.31867 465.726 4.154 464.929 4.154H460.743V8.158H464.903C465.7 8.158 466.316 7.99333 466.749 7.664C467.2 7.33467 467.425 6.832 467.425 6.156ZM456.713 19V0.799999H465.631C466.896 0.799999 467.962 1.008 468.829 1.424C469.696 1.82267 470.354 2.386 470.805 3.114C471.273 3.82467 471.507 4.648 471.507 5.584C471.507 6.39867 471.351 7.08333 471.039 7.638C470.744 8.17533 470.328 8.60867 469.791 8.938C469.271 9.25 468.673 9.46667 467.997 9.588V9.796C468.812 9.9 469.514 10.1253 470.103 10.472C470.692 10.8187 471.143 11.2953 471.455 11.902C471.767 12.4913 471.923 13.2107 471.923 14.06C471.923 15.0307 471.689 15.8887 471.221 16.634C470.753 17.3793 470.077 17.96 469.193 18.376C468.309 18.792 467.226 19 465.943 19H456.713ZM460.743 15.646H465.293C466.108 15.646 466.74 15.464 467.191 15.1C467.659 14.736 467.893 14.2073 467.893 13.514C467.893 12.786 467.65 12.2487 467.165 11.902C466.68 11.538 466.03 11.356 465.215 11.356H460.743V15.646ZM480.465 19.182C479.13 19.182 477.969 18.9047 476.981 18.35C475.993 17.778 475.221 16.9807 474.667 15.958C474.129 14.9353 473.861 13.7393 473.861 12.37C473.861 11.1047 474.129 9.978 474.667 8.99C475.204 8.002 475.958 7.23067 476.929 6.676C477.899 6.104 479 5.818 480.231 5.818C481.531 5.818 482.657 6.08667 483.611 6.624C484.564 7.144 485.309 7.88933 485.847 8.86C486.384 9.83067 486.653 10.9573 486.653 12.24C486.653 12.448 486.644 12.6647 486.627 12.89C486.609 13.1153 486.583 13.3667 486.549 13.644H477.917C478.003 14.112 478.168 14.5193 478.411 14.866C478.653 15.1953 478.957 15.4553 479.321 15.646C479.702 15.8193 480.135 15.906 480.621 15.906C481.158 15.906 481.643 15.7933 482.077 15.568C482.51 15.3427 482.831 15.022 483.039 14.606L486.445 15.542C485.925 16.7033 485.145 17.6047 484.105 18.246C483.065 18.87 481.851 19.182 480.465 19.182ZM482.519 11.174C482.501 10.7407 482.389 10.3593 482.181 10.03C481.973 9.70067 481.704 9.44067 481.375 9.25C481.045 9.05933 480.681 8.97267 480.283 8.99C479.884 9.00733 479.52 9.11133 479.191 9.302C478.879 9.47533 478.61 9.72667 478.385 10.056C478.159 10.368 478.021 10.7407 477.969 11.174H482.519ZM491.816 14.736C491.903 15.0653 492.041 15.334 492.232 15.542C492.44 15.7327 492.683 15.8713 492.96 15.958C493.237 16.0447 493.523 16.088 493.818 16.088C494.355 16.088 494.771 15.9927 495.066 15.802C495.361 15.6113 495.508 15.3687 495.508 15.074C495.508 14.7793 495.395 14.5627 495.17 14.424C494.962 14.268 494.685 14.1467 494.338 14.06C493.991 13.956 493.627 13.8607 493.246 13.774C492.813 13.67 492.327 13.5487 491.79 13.41C491.253 13.254 490.741 13.046 490.256 12.786C489.771 12.5087 489.372 12.1447 489.06 11.694C488.748 11.226 488.592 10.6453 488.592 9.952C488.592 9.15467 488.809 8.444 489.242 7.82C489.675 7.196 490.291 6.71067 491.088 6.364C491.885 6 492.83 5.818 493.922 5.818C495.274 5.818 496.375 6.09533 497.224 6.65C498.073 7.20467 498.671 7.98467 499.018 8.99L495.716 9.822C495.629 9.59667 495.499 9.42333 495.326 9.302C495.153 9.16333 494.936 9.068 494.676 9.016C494.433 8.94667 494.191 8.912 493.948 8.912C493.497 8.912 493.142 8.99867 492.882 9.172C492.622 9.34533 492.492 9.562 492.492 9.822C492.492 9.99533 492.544 10.1427 492.648 10.264C492.769 10.3853 492.925 10.4807 493.116 10.55C493.324 10.6193 493.558 10.68 493.818 10.732C494.095 10.784 494.39 10.8533 494.702 10.94C495.222 11.0613 495.751 11.2087 496.288 11.382C496.843 11.5553 497.354 11.7893 497.822 12.084C498.307 12.3613 498.689 12.7427 498.966 13.228C499.261 13.696 499.417 14.3027 499.434 15.048C499.434 15.8107 499.217 16.5127 498.784 17.154C498.351 17.778 497.718 18.272 496.886 18.636C496.054 19 495.04 19.182 493.844 19.182C492.405 19.182 491.201 18.8873 490.23 18.298C489.259 17.7087 488.644 16.7987 488.384 15.568L491.816 14.736ZM505.003 16.998L505.523 16.972V24.2H501.727V6H505.159L505.393 7.638C505.723 7.13533 506.225 6.71067 506.901 6.364C507.577 6 508.34 5.818 509.189 5.818C510.281 5.818 511.252 6.09533 512.101 6.65C512.951 7.18733 513.618 7.95867 514.103 8.964C514.606 9.952 514.857 11.1307 514.857 12.5C514.857 13.852 514.615 15.0307 514.129 16.036C513.644 17.0413 512.968 17.8213 512.101 18.376C511.252 18.9133 510.281 19.182 509.189 19.182C508.184 19.182 507.326 18.9653 506.615 18.532C505.922 18.0987 505.385 17.5873 505.003 16.998ZM510.775 12.5C510.775 11.5467 510.533 10.784 510.047 10.212C509.562 9.62267 508.929 9.328 508.149 9.328C507.664 9.328 507.222 9.44933 506.823 9.692C506.425 9.93467 506.104 10.29 505.861 10.758C505.636 11.226 505.523 11.8067 505.523 12.5C505.523 13.176 505.636 13.7567 505.861 14.242C506.104 14.71 506.425 15.074 506.823 15.334C507.222 15.5767 507.664 15.698 508.149 15.698C508.929 15.698 509.562 15.4033 510.047 14.814C510.533 14.2247 510.775 13.4533 510.775 12.5ZM523.197 19.182C521.932 19.182 520.796 18.9133 519.791 18.376C518.786 17.8387 517.997 17.0673 517.425 16.062C516.87 15.0567 516.593 13.8693 516.593 12.5C516.593 11.1307 516.879 9.952 517.451 8.964C518.04 7.95867 518.838 7.18733 519.843 6.65C520.866 6.09533 522.001 5.818 523.249 5.818C524.532 5.818 525.676 6.09533 526.681 6.65C527.704 7.18733 528.51 7.95867 529.099 8.964C529.688 9.952 529.983 11.122 529.983 12.474C529.983 13.8607 529.68 15.0567 529.073 16.062C528.484 17.0673 527.669 17.8387 526.629 18.376C525.606 18.9133 524.462 19.182 523.197 19.182ZM523.197 15.75C523.648 15.75 524.081 15.6287 524.497 15.386C524.913 15.1433 525.242 14.788 525.485 14.32C525.745 13.8347 525.875 13.228 525.875 12.5C525.875 11.772 525.745 11.174 525.485 10.706C525.242 10.2207 524.922 9.85667 524.523 9.614C524.124 9.37133 523.7 9.25 523.249 9.25C522.764 9.25 522.33 9.37133 521.949 9.614C521.568 9.85667 521.256 10.2207 521.013 10.706C520.788 11.174 520.675 11.772 520.675 12.5C520.675 13.228 520.788 13.8347 521.013 14.32C521.238 14.788 521.542 15.1433 521.923 15.386C522.304 15.6287 522.729 15.75 523.197 15.75ZM532.272 0.279999H536.094V10.836H536.796L540.722 6H545.688L540.15 12.422L545.714 19H540.774L536.77 13.982H536.094V19H532.272V0.279999ZM553.488 19.182C552.153 19.182 550.992 18.9047 550.004 18.35C549.016 17.778 548.245 16.9807 547.69 15.958C547.153 14.9353 546.884 13.7393 546.884 12.37C546.884 11.1047 547.153 9.978 547.69 8.99C548.227 8.002 548.981 7.23067 549.952 6.676C550.923 6.104 552.023 5.818 553.254 5.818C554.554 5.818 555.681 6.08667 556.634 6.624C557.587 7.144 558.333 7.88933 558.87 8.86C559.407 9.83067 559.676 10.9573 559.676 12.24C559.676 12.448 559.667 12.6647 559.65 12.89C559.633 13.1153 559.607 13.3667 559.572 13.644H550.94C551.027 14.112 551.191 14.5193 551.434 14.866C551.677 15.1953 551.98 15.4553 552.344 15.646C552.725 15.8193 553.159 15.906 553.644 15.906C554.181 15.906 554.667 15.7933 555.1 15.568C555.533 15.3427 555.854 15.022 556.062 14.606L559.468 15.542C558.948 16.7033 558.168 17.6047 557.128 18.246C556.088 18.87 554.875 19.182 553.488 19.182ZM555.542 11.174C555.525 10.7407 555.412 10.3593 555.204 10.03C554.996 9.70067 554.727 9.44067 554.398 9.25C554.069 9.05933 553.705 8.97267 553.306 8.99C552.907 9.00733 552.543 9.11133 552.214 9.302C551.902 9.47533 551.633 9.72667 551.408 10.056C551.183 10.368 551.044 10.7407 550.992 11.174H555.542ZM582.631 4.154H573.427V8.184H580.317V11.382H573.427V15.646H582.631V19H569.397V0.799999H582.631V4.154ZM584.277 6H588.749L591.193 9.77L593.611 6H598.057L593.481 12.474L598.057 19H593.611L591.193 15.23L588.749 19H584.277L588.879 12.474L584.277 6ZM603.392 16.998L603.912 16.972V24.2H600.116V6H603.548L603.782 7.638C604.111 7.13533 604.614 6.71067 605.29 6.364C605.966 6 606.729 5.818 607.578 5.818C608.67 5.818 609.641 6.09533 610.49 6.65C611.339 7.18733 612.007 7.95867 612.492 8.964C612.995 9.952 613.246 11.1307 613.246 12.5C613.246 13.852 613.003 15.0307 612.518 16.036C612.033 17.0413 611.357 17.8213 610.49 18.376C609.641 18.9133 608.67 19.182 607.578 19.182C606.573 19.182 605.715 18.9653 605.004 18.532C604.311 18.0987 603.773 17.5873 603.392 16.998ZM609.164 12.5C609.164 11.5467 608.921 10.784 608.436 10.212C607.951 9.62267 607.318 9.328 606.538 9.328C606.053 9.328 605.611 9.44933 605.212 9.692C604.813 9.93467 604.493 10.29 604.25 10.758C604.025 11.226 603.912 11.8067 603.912 12.5C603.912 13.176 604.025 13.7567 604.25 14.242C604.493 14.71 604.813 15.074 605.212 15.334C605.611 15.5767 606.053 15.698 606.538 15.698C607.318 15.698 607.951 15.4033 608.436 14.814C608.921 14.2247 609.164 13.4533 609.164 12.5ZM621.586 19.182C620.251 19.182 619.09 18.9047 618.102 18.35C617.114 17.778 616.342 16.9807 615.788 15.958C615.25 14.9353 614.982 13.7393 614.982 12.37C614.982 11.1047 615.25 9.978 615.788 8.99C616.325 8.002 617.079 7.23067 618.05 6.676C619.02 6.104 620.121 5.818 621.352 5.818C622.652 5.818 623.778 6.08667 624.732 6.624C625.685 7.144 626.43 7.88933 626.968 8.86C627.505 9.83067 627.774 10.9573 627.774 12.24C627.774 12.448 627.765 12.6647 627.748 12.89C627.73 13.1153 627.704 13.3667 627.67 13.644H619.038C619.124 14.112 619.289 14.5193 619.532 14.866C619.774 15.1953 620.078 15.4553 620.442 15.646C620.823 15.8193 621.256 15.906 621.742 15.906C622.279 15.906 622.764 15.7933 623.198 15.568C623.631 15.3427 623.952 15.022 624.16 14.606L627.566 15.542C627.046 16.7033 626.266 17.6047 625.226 18.246C624.186 18.87 622.972 19.182 621.586 19.182ZM623.64 11.174C623.622 10.7407 623.51 10.3593 623.302 10.03C623.094 9.70067 622.825 9.44067 622.496 9.25C622.166 9.05933 621.802 8.97267 621.404 8.99C621.005 9.00733 620.641 9.11133 620.312 9.302C620 9.47533 619.731 9.72667 619.506 10.056C619.28 10.368 619.142 10.7407 619.09 11.174H623.64ZM630.077 6H633.535L633.795 7.716C634.124 7.26533 634.514 6.89267 634.965 6.598C635.433 6.286 635.944 6.078 636.499 5.974C637.071 5.87 637.695 5.87867 638.371 6V9.588C637.92 9.432 637.435 9.38867 636.915 9.458C636.395 9.51 635.901 9.68333 635.433 9.978C634.965 10.2553 634.584 10.6713 634.289 11.226C634.012 11.7807 633.873 12.4827 633.873 13.332V19H630.077V6ZM640.778 6H644.574V19H640.778V6ZM642.676 4.674C641.965 4.674 641.385 4.466 640.934 4.05C640.501 3.61667 640.284 3.09667 640.284 2.49C640.284 1.866 640.501 1.346 640.934 0.929999C641.385 0.496666 641.965 0.279999 642.676 0.279999C643.369 0.279999 643.933 0.496666 644.366 0.929999C644.817 1.346 645.042 1.866 645.042 2.49C645.042 3.09667 644.817 3.61667 644.366 4.05C643.933 4.466 643.369 4.674 642.676 4.674ZM653.959 19.182C652.624 19.182 651.463 18.9047 650.475 18.35C649.487 17.778 648.715 16.9807 648.161 15.958C647.623 14.9353 647.355 13.7393 647.355 12.37C647.355 11.1047 647.623 9.978 648.161 8.99C648.698 8.002 649.452 7.23067 650.423 6.676C651.393 6.104 652.494 5.818 653.725 5.818C655.025 5.818 656.151 6.08667 657.105 6.624C658.058 7.144 658.803 7.88933 659.341 8.86C659.878 9.83067 660.147 10.9573 660.147 12.24C660.147 12.448 660.138 12.6647 660.121 12.89C660.103 13.1153 660.077 13.3667 660.043 13.644H651.411C651.497 14.112 651.662 14.5193 651.905 14.866C652.147 15.1953 652.451 15.4553 652.815 15.646C653.196 15.8193 653.629 15.906 654.115 15.906C654.652 15.906 655.137 15.7933 655.571 15.568C656.004 15.3427 656.325 15.022 656.533 14.606L659.939 15.542C659.419 16.7033 658.639 17.6047 657.599 18.246C656.559 18.87 655.345 19.182 653.959 19.182ZM656.013 11.174C655.995 10.7407 655.883 10.3593 655.675 10.03C655.467 9.70067 655.198 9.44067 654.869 9.25C654.539 9.05933 654.175 8.97267 653.777 8.99C653.378 9.00733 653.014 9.11133 652.685 9.302C652.373 9.47533 652.104 9.72667 651.879 10.056C651.653 10.368 651.515 10.7407 651.463 11.174H656.013ZM662.45 6H665.882L666.142 7.404C666.575 6.936 667.087 6.55467 667.676 6.26C668.265 5.96533 668.907 5.818 669.6 5.818C670.623 5.818 671.481 6.03467 672.174 6.468C672.885 6.90133 673.422 7.534 673.786 8.366C674.167 9.198 674.358 10.212 674.358 11.408V19H670.562V11.876C670.562 11.0093 670.38 10.3507 670.016 9.9C669.669 9.44933 669.141 9.224 668.43 9.224C667.702 9.224 667.156 9.458 666.792 9.926C666.428 10.3767 666.246 11.0353 666.246 11.902V19H662.45V6ZM682.951 19.182C681.685 19.1993 680.567 18.9307 679.597 18.376C678.626 17.804 677.872 17.024 677.335 16.036C676.797 15.0307 676.529 13.8607 676.529 12.526C676.529 11.2087 676.797 10.0473 677.335 9.042C677.872 8.01933 678.626 7.23067 679.597 6.676C680.567 6.104 681.685 5.818 682.951 5.818C684.389 5.818 685.646 6.182 686.721 6.91C687.813 7.62067 688.575 8.6 689.009 9.848L685.421 10.732C685.247 10.264 684.961 9.9 684.563 9.64C684.164 9.38 683.705 9.25 683.185 9.25C682.665 9.25 682.205 9.38867 681.807 9.666C681.408 9.94333 681.096 10.3333 680.871 10.836C680.663 11.3213 680.559 11.8847 680.559 12.526C680.559 13.4967 680.801 14.2767 681.287 14.866C681.772 15.4553 682.405 15.75 683.185 15.75C683.687 15.75 684.138 15.6287 684.537 15.386C684.935 15.126 685.247 14.762 685.473 14.294L689.035 15.204C688.601 16.4 687.83 17.362 686.721 18.09C685.629 18.8007 684.372 19.1647 682.951 19.182ZM697.377 19.182C696.042 19.182 694.881 18.9047 693.893 18.35C692.905 17.778 692.133 16.9807 691.579 15.958C691.041 14.9353 690.773 13.7393 690.773 12.37C690.773 11.1047 691.041 9.978 691.579 8.99C692.116 8.002 692.87 7.23067 693.841 6.676C694.811 6.104 695.912 5.818 697.143 5.818C698.443 5.818 699.569 6.08667 700.523 6.624C701.476 7.144 702.221 7.88933 702.759 8.86C703.296 9.83067 703.565 10.9573 703.565 12.24C703.565 12.448 703.556 12.6647 703.539 12.89C703.521 13.1153 703.495 13.3667 703.461 13.644H694.829C694.915 14.112 695.08 14.5193 695.323 14.866C695.565 15.1953 695.869 15.4553 696.233 15.646C696.614 15.8193 697.047 15.906 697.533 15.906C698.07 15.906 698.555 15.7933 698.989 15.568C699.422 15.3427 699.743 15.022 699.951 14.606L703.357 15.542C702.837 16.7033 702.057 17.6047 701.017 18.246C699.977 18.87 698.763 19.182 697.377 19.182ZM699.431 11.174C699.413 10.7407 699.301 10.3593 699.093 10.03C698.885 9.70067 698.616 9.44067 698.287 9.25C697.957 9.05933 697.593 8.97267 697.195 8.99C696.796 9.00733 696.432 9.11133 696.103 9.302C695.791 9.47533 695.522 9.72667 695.297 10.056C695.071 10.368 694.933 10.7407 694.881 11.174H699.431ZM721.839 19.182C720.539 19.182 719.326 18.9567 718.199 18.506C717.073 18.0553 716.085 17.4227 715.235 16.608C714.386 15.776 713.719 14.7967 713.233 13.67C712.748 12.526 712.505 11.2693 712.505 9.9C712.505 8.53067 712.748 7.28267 713.233 6.156C713.719 5.012 714.386 4.03267 715.235 3.218C716.085 2.386 717.073 1.74467 718.199 1.294C719.326 0.843333 720.539 0.618 721.839 0.618C723.122 0.618 724.327 0.843333 725.453 1.294C726.597 1.74467 727.585 2.386 728.417 3.218C729.267 4.03267 729.934 5.012 730.419 6.156C730.905 7.28267 731.147 8.53067 731.147 9.9C731.147 11.2693 730.905 12.526 730.419 13.67C729.934 14.7967 729.267 15.776 728.417 16.608C727.568 17.4227 726.58 18.0553 725.453 18.506C724.327 18.9567 723.122 19.182 721.839 19.182ZM721.839 15.75C722.862 15.75 723.763 15.5073 724.543 15.022C725.341 14.5193 725.956 13.826 726.389 12.942C726.84 12.058 727.065 11.044 727.065 9.9C727.065 8.73867 726.84 7.72467 726.389 6.858C725.956 5.974 725.341 5.28933 724.543 4.804C723.763 4.30133 722.862 4.05 721.839 4.05C720.782 4.05 719.863 4.30133 719.083 4.804C718.303 5.28933 717.688 5.974 717.237 6.858C716.804 7.72467 716.587 8.73867 716.587 9.9C716.587 11.044 716.804 12.058 717.237 12.942C717.688 13.826 718.303 14.5193 719.083 15.022C719.863 15.5073 720.782 15.75 721.839 15.75ZM736.668 16.998L737.188 16.972V24.2H733.392V6H736.824L737.058 7.638C737.387 7.13533 737.89 6.71067 738.566 6.364C739.242 6 740.004 5.818 740.854 5.818C741.946 5.818 742.916 6.09533 743.766 6.65C744.615 7.18733 745.282 7.95867 745.768 8.964C746.27 9.952 746.522 11.1307 746.522 12.5C746.522 13.852 746.279 15.0307 745.794 16.036C745.308 17.0413 744.632 17.8213 743.766 18.376C742.916 18.9133 741.946 19.182 740.854 19.182C739.848 19.182 738.99 18.9653 738.28 18.532C737.586 18.0987 737.049 17.5873 736.668 16.998ZM742.44 12.5C742.44 11.5467 742.197 10.784 741.712 10.212C741.226 9.62267 740.594 9.328 739.814 9.328C739.328 9.328 738.886 9.44933 738.488 9.692C738.089 9.93467 737.768 10.29 737.526 10.758C737.3 11.226 737.188 11.8067 737.188 12.5C737.188 13.176 737.3 13.7567 737.526 14.242C737.768 14.71 738.089 15.074 738.488 15.334C738.886 15.5767 739.328 15.698 739.814 15.698C740.594 15.698 741.226 15.4033 741.712 14.814C742.197 14.2247 742.44 13.4533 742.44 12.5ZM749.843 6V2.36H753.717V6H756.395V9.354H753.717V14.034C753.717 14.6233 753.847 15.0393 754.107 15.282C754.384 15.5247 754.731 15.6547 755.147 15.672C755.563 15.672 755.979 15.6373 756.395 15.568V18.87C755.511 19.026 754.67 19.0693 753.873 19C753.076 18.948 752.374 18.74 751.767 18.376C751.178 18.012 750.71 17.4747 750.363 16.764C750.016 16.0533 749.843 15.1433 749.843 14.034V9.354H748.023V6H749.843ZM759.022 6H762.818V19H759.022V6ZM760.92 4.674C760.21 4.674 759.629 4.466 759.178 4.05C758.745 3.61667 758.528 3.09667 758.528 2.49C758.528 1.866 758.745 1.346 759.178 0.929999C759.629 0.496666 760.21 0.279999 760.92 0.279999C761.614 0.279999 762.177 0.496666 762.61 0.929999C763.061 1.346 763.286 1.866 763.286 2.49C763.286 3.09667 763.061 3.61667 762.61 4.05C762.177 4.466 761.614 4.674 760.92 4.674ZM772.203 19.182C770.938 19.182 769.802 18.9133 768.797 18.376C767.792 17.8387 767.003 17.0673 766.431 16.062C765.876 15.0567 765.599 13.8693 765.599 12.5C765.599 11.1307 765.885 9.952 766.457 8.964C767.046 7.95867 767.844 7.18733 768.849 6.65C769.872 6.09533 771.007 5.818 772.255 5.818C773.538 5.818 774.682 6.09533 775.687 6.65C776.71 7.18733 777.516 7.95867 778.105 8.964C778.694 9.952 778.989 11.122 778.989 12.474C778.989 13.8607 778.686 15.0567 778.079 16.062C777.49 17.0673 776.675 17.8387 775.635 18.376C774.612 18.9133 773.468 19.182 772.203 19.182ZM772.203 15.75C772.654 15.75 773.087 15.6287 773.503 15.386C773.919 15.1433 774.248 14.788 774.491 14.32C774.751 13.8347 774.881 13.228 774.881 12.5C774.881 11.772 774.751 11.174 774.491 10.706C774.248 10.2207 773.928 9.85667 773.529 9.614C773.13 9.37133 772.706 9.25 772.255 9.25C771.77 9.25 771.336 9.37133 770.955 9.614C770.574 9.85667 770.262 10.2207 770.019 10.706C769.794 11.174 769.681 11.772 769.681 12.5C769.681 13.228 769.794 13.8347 770.019 14.32C770.244 14.788 770.548 15.1433 770.929 15.386C771.31 15.6287 771.735 15.75 772.203 15.75ZM781.278 6H784.71L784.97 7.404C785.404 6.936 785.915 6.55467 786.504 6.26C787.094 5.96533 787.735 5.818 788.428 5.818C789.451 5.818 790.309 6.03467 791.002 6.468C791.713 6.90133 792.25 7.534 792.614 8.366C792.996 9.198 793.186 10.212 793.186 11.408V19H789.39V11.876C789.39 11.0093 789.208 10.3507 788.844 9.9C788.498 9.44933 787.969 9.224 787.258 9.224C786.53 9.224 785.984 9.458 785.62 9.926C785.256 10.3767 785.074 11.0353 785.074 11.902V19H781.278V6ZM798.789 14.736C798.875 15.0653 799.014 15.334 799.205 15.542C799.413 15.7327 799.655 15.8713 799.933 15.958C800.21 16.0447 800.496 16.088 800.791 16.088C801.328 16.088 801.744 15.9927 802.039 15.802C802.333 15.6113 802.481 15.3687 802.481 15.074C802.481 14.7793 802.368 14.5627 802.143 14.424C801.935 14.268 801.657 14.1467 801.311 14.06C800.964 13.956 800.6 13.8607 800.219 13.774C799.785 13.67 799.3 13.5487 798.763 13.41C798.225 13.254 797.714 13.046 797.229 12.786C796.743 12.5087 796.345 12.1447 796.033 11.694C795.721 11.226 795.565 10.6453 795.565 9.952C795.565 9.15467 795.781 8.444 796.215 7.82C796.648 7.196 797.263 6.71067 798.061 6.364C798.858 6 799.803 5.818 800.895 5.818C802.247 5.818 803.347 6.09533 804.197 6.65C805.046 7.20467 805.644 7.98467 805.991 8.99L802.689 9.822C802.602 9.59667 802.472 9.42333 802.299 9.302C802.125 9.16333 801.909 9.068 801.649 9.016C801.406 8.94667 801.163 8.912 800.921 8.912C800.47 8.912 800.115 8.99867 799.855 9.172C799.595 9.34533 799.465 9.562 799.465 9.822C799.465 9.99533 799.517 10.1427 799.621 10.264C799.742 10.3853 799.898 10.4807 800.089 10.55C800.297 10.6193 800.531 10.68 800.791 10.732C801.068 10.784 801.363 10.8533 801.675 10.94C802.195 11.0613 802.723 11.2087 803.261 11.382C803.815 11.5553 804.327 11.7893 804.795 12.084C805.28 12.3613 805.661 12.7427 805.939 13.228C806.233 13.696 806.389 14.3027 806.407 15.048C806.407 15.8107 806.19 16.5127 805.757 17.154C805.323 17.778 804.691 18.272 803.859 18.636C803.027 19 802.013 19.182 800.817 19.182C799.378 19.182 798.173 18.8873 797.203 18.298C796.232 17.7087 795.617 16.7987 795.357 15.568L798.789 14.736ZM840.033 19.208C839.305 19.208 838.715 18.9913 838.265 18.558C837.814 18.1073 837.589 17.5613 837.589 16.92C837.589 16.296 837.814 15.7673 838.265 15.334C838.715 14.8833 839.305 14.658 840.033 14.658C840.743 14.658 841.324 14.8833 841.775 15.334C842.225 15.7673 842.451 16.296 842.451 16.92C842.451 17.5613 842.225 18.1073 841.775 18.558C841.324 18.9913 840.743 19.208 840.033 19.208ZM881.538 0.799999C883.497 0.799999 885.187 1.18133 886.608 1.944C888.047 2.68933 889.156 3.75533 889.936 5.142C890.733 6.51133 891.132 8.106 891.132 9.926C891.132 11.746 890.733 13.3407 889.936 14.71C889.156 16.062 888.047 17.1193 886.608 17.882C885.187 18.6273 883.497 19 881.538 19H874.414V0.799999H881.538ZM881.33 15.646C883.133 15.646 884.537 15.1347 885.542 14.112C886.547 13.0893 887.05 11.694 887.05 9.926C887.05 8.14067 886.547 6.73667 885.542 5.714C884.537 4.674 883.133 4.154 881.33 4.154H878.444V15.646H881.33ZM899.435 19.182C898.101 19.182 896.939 18.9047 895.951 18.35C894.963 17.778 894.192 16.9807 893.637 15.958C893.1 14.9353 892.831 13.7393 892.831 12.37C892.831 11.1047 893.1 9.978 893.637 8.99C894.175 8.002 894.929 7.23067 895.899 6.676C896.87 6.104 897.971 5.818 899.201 5.818C900.501 5.818 901.628 6.08667 902.581 6.624C903.535 7.144 904.28 7.88933 904.817 8.86C905.355 9.83067 905.623 10.9573 905.623 12.24C905.623 12.448 905.615 12.6647 905.597 12.89C905.58 13.1153 905.554 13.3667 905.519 13.644H896.887C896.974 14.112 897.139 14.5193 897.381 14.866C897.624 15.1953 897.927 15.4553 898.291 15.646C898.673 15.8193 899.106 15.906 899.591 15.906C900.129 15.906 900.614 15.7933 901.047 15.568C901.481 15.3427 901.801 15.022 902.009 14.606L905.415 15.542C904.895 16.7033 904.115 17.6047 903.075 18.246C902.035 18.87 900.822 19.182 899.435 19.182ZM901.489 11.174C901.472 10.7407 901.359 10.3593 901.151 10.03C900.943 9.70067 900.675 9.44067 900.345 9.25C900.016 9.05933 899.652 8.97267 899.253 8.99C898.855 9.00733 898.491 9.11133 898.161 9.302C897.849 9.47533 897.581 9.72667 897.355 10.056C897.13 10.368 896.991 10.7407 896.939 11.174H901.489ZM911.203 16.998L911.723 16.972V24.2H907.927V6H911.359L911.593 7.638C911.922 7.13533 912.425 6.71067 913.101 6.364C913.777 6 914.539 5.818 915.389 5.818C916.481 5.818 917.451 6.09533 918.301 6.65C919.15 7.18733 919.817 7.95867 920.303 8.964C920.805 9.952 921.057 11.1307 921.057 12.5C921.057 13.852 920.814 15.0307 920.329 16.036C919.843 17.0413 919.167 17.8213 918.301 18.376C917.451 18.9133 916.481 19.182 915.389 19.182C914.383 19.182 913.525 18.9653 912.815 18.532C912.121 18.0987 911.584 17.5873 911.203 16.998ZM916.975 12.5C916.975 11.5467 916.732 10.784 916.247 10.212C915.761 9.62267 915.129 9.328 914.349 9.328C913.863 9.328 913.421 9.44933 913.023 9.692C912.624 9.93467 912.303 10.29 912.061 10.758C911.835 11.226 911.723 11.8067 911.723 12.5C911.723 13.176 911.835 13.7567 912.061 14.242C912.303 14.71 912.624 15.074 913.023 15.334C913.421 15.5767 913.863 15.698 914.349 15.698C915.129 15.698 915.761 15.4033 916.247 14.814C916.732 14.2247 916.975 13.4533 916.975 12.5ZM930.878 19L930.618 17.388C930.168 17.9427 929.682 18.376 929.162 18.688C928.642 19 927.94 19.156 927.056 19.156C926.259 19.156 925.54 19.0173 924.898 18.74C924.257 18.4453 923.746 18.0207 923.364 17.466C923 16.9113 922.818 16.244 922.818 15.464C922.818 14.3893 923.2 13.4967 923.962 12.786C924.742 12.0753 925.947 11.6333 927.576 11.46L930.618 11.122V10.264C930.618 9.96933 930.471 9.68333 930.176 9.406C929.899 9.11133 929.457 8.964 928.85 8.964C928.313 8.964 927.845 9.10267 927.446 9.38C927.065 9.65733 926.805 10.056 926.666 10.576L923.416 9.406C923.798 8.24467 924.465 7.36067 925.418 6.754C926.389 6.13 927.585 5.818 929.006 5.818C930.774 5.818 932.118 6.26 933.036 7.144C933.955 8.028 934.414 9.21533 934.414 10.706V19H930.878ZM930.618 13.462L928.2 13.748C927.715 13.8173 927.342 13.9733 927.082 14.216C926.84 14.4413 926.718 14.7273 926.718 15.074C926.718 15.4033 926.857 15.6807 927.134 15.906C927.412 16.1313 927.793 16.244 928.278 16.244C928.764 16.244 929.18 16.1487 929.526 15.958C929.873 15.75 930.142 15.464 930.332 15.1C930.523 14.7187 930.618 14.2507 930.618 13.696V13.462ZM937.151 6H940.609L940.869 7.716C941.199 7.26533 941.589 6.89267 942.039 6.598C942.507 6.286 943.019 6.078 943.573 5.974C944.145 5.87 944.769 5.87867 945.445 6V9.588C944.995 9.432 944.509 9.38867 943.989 9.458C943.469 9.51 942.975 9.68333 942.507 9.978C942.039 10.2553 941.658 10.6713 941.363 11.226C941.086 11.7807 940.947 12.4827 940.947 13.332V19H937.151V6ZM948.372 6V2.36H952.246V6H954.924V9.354H952.246V14.034C952.246 14.6233 952.376 15.0393 952.636 15.282C952.914 15.5247 953.26 15.6547 953.676 15.672C954.092 15.672 954.508 15.6373 954.924 15.568V18.87C954.04 19.026 953.2 19.0693 952.402 19C951.605 18.948 950.903 18.74 950.296 18.376C949.707 18.012 949.239 17.4747 948.892 16.764C948.546 16.0533 948.372 15.1433 948.372 14.034V9.354H946.552V6H948.372ZM959.918 14.736C960.004 15.0653 960.143 15.334 960.334 15.542C960.542 15.7327 960.784 15.8713 961.062 15.958C961.339 16.0447 961.625 16.088 961.92 16.088C962.457 16.088 962.873 15.9927 963.168 15.802C963.462 15.6113 963.61 15.3687 963.61 15.074C963.61 14.7793 963.497 14.5627 963.272 14.424C963.064 14.268 962.786 14.1467 962.44 14.06C962.093 13.956 961.729 13.8607 961.348 13.774C960.914 13.67 960.429 13.5487 959.892 13.41C959.354 13.254 958.843 13.046 958.358 12.786C957.872 12.5087 957.474 12.1447 957.162 11.694C956.85 11.226 956.694 10.6453 956.694 9.952C956.694 9.15467 956.91 8.444 957.344 7.82C957.777 7.196 958.392 6.71067 959.19 6.364C959.987 6 960.932 5.818 962.024 5.818C963.376 5.818 964.476 6.09533 965.326 6.65C966.175 7.20467 966.773 7.98467 967.12 8.99L963.818 9.822C963.731 9.59667 963.601 9.42333 963.428 9.302C963.254 9.16333 963.038 9.068 962.778 9.016C962.535 8.94667 962.292 8.912 962.05 8.912C961.599 8.912 961.244 8.99867 960.984 9.172C960.724 9.34533 960.594 9.562 960.594 9.822C960.594 9.99533 960.646 10.1427 960.75 10.264C960.871 10.3853 961.027 10.4807 961.218 10.55C961.426 10.6193 961.66 10.68 961.92 10.732C962.197 10.784 962.492 10.8533 962.804 10.94C963.324 11.0613 963.852 11.2087 964.39 11.382C964.944 11.5553 965.456 11.7893 965.924 12.084C966.409 12.3613 966.79 12.7427 967.068 13.228C967.362 13.696 967.518 14.3027 967.536 15.048C967.536 15.8107 967.319 16.5127 966.886 17.154C966.452 17.778 965.82 18.272 964.988 18.636C964.156 19 963.142 19.182 961.946 19.182C960.507 19.182 959.302 18.8873 958.332 18.298C957.361 17.7087 956.746 16.7987 956.486 15.568L959.918 14.736ZM984.37 0.799999C986.329 0.799999 988.019 1.18133 989.44 1.944C990.879 2.68933 991.988 3.75533 992.768 5.142C993.565 6.51133 993.964 8.106 993.964 9.926C993.964 11.746 993.565 13.3407 992.768 14.71C991.988 16.062 990.879 17.1193 989.44 17.882C988.019 18.6273 986.329 19 984.37 19H977.246V0.799999H984.37ZM984.162 15.646C985.965 15.646 987.369 15.1347 988.374 14.112C989.379 13.0893 989.882 11.694 989.882 9.926C989.882 8.14067 989.379 6.73667 988.374 5.714C987.369 4.674 985.965 4.154 984.162 4.154H981.276V15.646H984.162ZM1003.75 19L1003.49 17.388C1003.04 17.9427 1002.55 18.376 1002.03 18.688C1001.51 19 1000.81 19.156 999.927 19.156C999.13 19.156 998.411 19.0173 997.769 18.74C997.128 18.4453 996.617 18.0207 996.235 17.466C995.871 16.9113 995.689 16.244 995.689 15.464C995.689 14.3893 996.071 13.4967 996.833 12.786C997.613 12.0753 998.818 11.6333 1000.45 11.46L1003.49 11.122V10.264C1003.49 9.96933 1003.34 9.68333 1003.05 9.406C1002.77 9.11133 1002.33 8.964 1001.72 8.964C1001.18 8.964 1000.72 9.10267 1000.32 9.38C999.936 9.65733 999.676 10.056 999.537 10.576L996.287 9.406C996.669 8.24467 997.336 7.36067 998.289 6.754C999.26 6.13 1000.46 5.818 1001.88 5.818C1003.65 5.818 1004.99 6.26 1005.91 7.144C1006.83 8.028 1007.29 9.21533 1007.29 10.706V19H1003.75ZM1003.49 13.462L1001.07 13.748C1000.59 13.8173 1000.21 13.9733 999.953 14.216C999.711 14.4413 999.589 14.7273 999.589 15.074C999.589 15.4033 999.728 15.6807 1000.01 15.906C1000.28 16.1313 1000.66 16.244 1001.15 16.244C1001.63 16.244 1002.05 16.1487 1002.4 15.958C1002.74 15.75 1003.01 15.464 1003.2 15.1C1003.39 14.7187 1003.49 14.2507 1003.49 13.696V13.462ZM1010.52 6H1014.31V19H1010.52V6ZM1012.41 4.674C1011.7 4.674 1011.12 4.466 1010.67 4.05C1010.24 3.61667 1010.02 3.09667 1010.02 2.49C1010.02 1.866 1010.24 1.346 1010.67 0.929999C1011.12 0.496666 1011.7 0.279999 1012.41 0.279999C1013.11 0.279999 1013.67 0.496666 1014.1 0.929999C1014.56 1.346 1014.78 1.866 1014.78 2.49C1014.78 3.09667 1014.56 3.61667 1014.1 4.05C1013.67 4.466 1013.11 4.674 1012.41 4.674ZM1017.66 0.279999H1021.46V19H1017.66V0.279999ZM1033.29 6H1037.39L1029.7 24.2H1025.82L1028.4 18.402L1023.25 6H1027.49L1030.37 13.774L1033.29 6ZM1047.21 5.038C1047.21 3.80733 1047.44 2.81933 1047.89 2.074C1048.35 1.32867 1049.02 0.808666 1049.89 0.513999C1050.75 0.219332 1051.81 0.141332 1053.06 0.279999V3.66C1052.37 3.556 1051.85 3.65133 1051.5 3.946C1051.17 4.22333 1051.01 4.68267 1051.01 5.324V6H1053.16V9.354H1051.01V19H1047.21V9.354H1045.73V6H1047.21V5.038ZM1055.29 6H1058.75L1059.01 7.716C1059.34 7.26533 1059.73 6.89267 1060.18 6.598C1060.65 6.286 1061.16 6.078 1061.72 5.974C1062.29 5.87 1062.91 5.87867 1063.59 6V9.588C1063.14 9.432 1062.65 9.38867 1062.13 9.458C1061.61 9.51 1061.12 9.68333 1060.65 9.978C1060.18 10.2553 1059.8 10.6713 1059.51 11.226C1059.23 11.7807 1059.09 12.4827 1059.09 13.332V19H1055.29V6ZM1071.53 19.182C1070.27 19.182 1069.13 18.9133 1068.13 18.376C1067.12 17.8387 1066.33 17.0673 1065.76 16.062C1065.21 15.0567 1064.93 13.8693 1064.93 12.5C1064.93 11.1307 1065.21 9.952 1065.79 8.964C1066.38 7.95867 1067.17 7.18733 1068.18 6.65C1069.2 6.09533 1070.34 5.818 1071.58 5.818C1072.87 5.818 1074.01 6.09533 1075.02 6.65C1076.04 7.18733 1076.85 7.95867 1077.43 8.964C1078.02 9.952 1078.32 11.122 1078.32 12.474C1078.32 13.8607 1078.02 15.0567 1077.41 16.062C1076.82 17.0673 1076 17.8387 1074.96 18.376C1073.94 18.9133 1072.8 19.182 1071.53 19.182ZM1071.53 15.75C1071.98 15.75 1072.42 15.6287 1072.83 15.386C1073.25 15.1433 1073.58 14.788 1073.82 14.32C1074.08 13.8347 1074.21 13.228 1074.21 12.5C1074.21 11.772 1074.08 11.174 1073.82 10.706C1073.58 10.2207 1073.26 9.85667 1072.86 9.614C1072.46 9.37133 1072.04 9.25 1071.58 9.25C1071.1 9.25 1070.67 9.37133 1070.28 9.614C1069.9 9.85667 1069.59 10.2207 1069.35 10.706C1069.12 11.174 1069.01 11.772 1069.01 12.5C1069.01 13.228 1069.12 13.8347 1069.35 14.32C1069.57 14.788 1069.88 15.1433 1070.26 15.386C1070.64 15.6287 1071.06 15.75 1071.53 15.75ZM1080.61 6H1084.04L1084.3 7.326C1084.72 6.87533 1085.21 6.51133 1085.78 6.234C1086.35 5.95667 1086.98 5.818 1087.65 5.818C1088.45 5.818 1089.19 5.99133 1089.86 6.338C1090.56 6.68467 1091.12 7.18733 1091.55 7.846C1092.02 7.23933 1092.61 6.754 1093.32 6.39C1094.05 6.00867 1094.85 5.818 1095.71 5.818C1096.74 5.818 1097.62 6.03467 1098.37 6.468C1099.13 6.90133 1099.72 7.534 1100.13 8.366C1100.55 9.198 1100.76 10.212 1100.76 11.408V19H1096.96V11.876C1096.96 11.044 1096.77 10.4113 1096.39 9.978C1096.01 9.52733 1095.47 9.302 1094.78 9.302C1094.05 9.302 1093.49 9.52733 1093.09 9.978C1092.69 10.4287 1092.49 11.0873 1092.49 11.954V19H1088.69V11.876C1088.69 11.044 1088.52 10.4113 1088.17 9.978C1087.83 9.52733 1087.3 9.302 1086.59 9.302C1085.86 9.302 1085.31 9.52733 1084.95 9.978C1084.59 10.4287 1084.4 11.07 1084.4 11.902V19H1080.61V6ZM1110.15 9.9C1110.15 8.548 1110.37 7.30867 1110.82 6.182C1111.29 5.038 1111.93 4.05 1112.75 3.218C1113.56 2.386 1114.53 1.74467 1115.66 1.294C1116.79 0.843333 1118.01 0.618 1119.33 0.618C1121.28 0.618 1122.99 1.09467 1124.45 2.048C1125.9 3.00133 1126.96 4.336 1127.62 6.052L1124.19 6.91C1123.86 6.21667 1123.44 5.662 1122.94 5.246C1122.44 4.81267 1121.88 4.50067 1121.28 4.31C1120.67 4.102 1120.03 3.998 1119.35 3.998C1118.31 3.998 1117.4 4.258 1116.62 4.778C1115.84 5.28067 1115.24 5.974 1114.8 6.858C1114.39 7.742 1114.18 8.756 1114.18 9.9C1114.18 11.0613 1114.39 12.084 1114.8 12.968C1115.24 13.852 1115.84 14.5453 1116.62 15.048C1117.4 15.5507 1118.31 15.802 1119.35 15.802C1120.05 15.802 1120.7 15.698 1121.33 15.49C1121.97 15.282 1122.55 14.9353 1123.07 14.45C1123.61 13.9647 1124.06 13.3147 1124.42 12.5L1127.8 13.28C1127.11 15.204 1126.03 16.6687 1124.55 17.674C1123.08 18.6793 1121.34 19.182 1119.33 19.182C1118.01 19.182 1116.79 18.9567 1115.66 18.506C1114.53 18.0553 1113.56 17.4227 1112.75 16.608C1111.93 15.776 1111.29 14.7967 1110.82 13.67C1110.37 12.526 1110.15 11.2693 1110.15 9.9ZM1136.33 19.182C1135.06 19.182 1133.93 18.9133 1132.92 18.376C1131.92 17.8387 1131.13 17.0673 1130.56 16.062C1130 15.0567 1129.73 13.8693 1129.73 12.5C1129.73 11.1307 1130.01 9.952 1130.58 8.964C1131.17 7.95867 1131.97 7.18733 1132.98 6.65C1134 6.09533 1135.13 5.818 1136.38 5.818C1137.66 5.818 1138.81 6.09533 1139.81 6.65C1140.84 7.18733 1141.64 7.95867 1142.23 8.964C1142.82 9.952 1143.12 11.122 1143.12 12.474C1143.12 13.8607 1142.81 15.0567 1142.21 16.062C1141.62 17.0673 1140.8 17.8387 1139.76 18.376C1138.74 18.9133 1137.6 19.182 1136.33 19.182ZM1136.33 15.75C1136.78 15.75 1137.21 15.6287 1137.63 15.386C1138.05 15.1433 1138.38 14.788 1138.62 14.32C1138.88 13.8347 1139.01 13.228 1139.01 12.5C1139.01 11.772 1138.88 11.174 1138.62 10.706C1138.38 10.2207 1138.05 9.85667 1137.66 9.614C1137.26 9.37133 1136.83 9.25 1136.38 9.25C1135.9 9.25 1135.46 9.37133 1135.08 9.614C1134.7 9.85667 1134.39 10.2207 1134.15 10.706C1133.92 11.174 1133.81 11.772 1133.81 12.5C1133.81 13.228 1133.92 13.8347 1134.15 14.32C1134.37 14.788 1134.67 15.1433 1135.06 15.386C1135.44 15.6287 1135.86 15.75 1136.33 15.75ZM1145.41 0.279999H1149.2V19H1145.41V0.279999ZM1155.2 6L1157.96 14.528L1160.71 6H1164.8L1160.06 19H1155.83L1151.12 6H1155.2ZM1174.25 19L1173.99 17.388C1173.54 17.9427 1173.05 18.376 1172.53 18.688C1172.01 19 1171.31 19.156 1170.43 19.156C1169.63 19.156 1168.91 19.0173 1168.27 18.74C1167.63 18.4453 1167.11 18.0207 1166.73 17.466C1166.37 16.9113 1166.19 16.244 1166.19 15.464C1166.19 14.3893 1166.57 13.4967 1167.33 12.786C1168.11 12.0753 1169.32 11.6333 1170.95 11.46L1173.99 11.122V10.264C1173.99 9.96933 1173.84 9.68333 1173.55 9.406C1173.27 9.11133 1172.83 8.964 1172.22 8.964C1171.68 8.964 1171.21 9.10267 1170.82 9.38C1170.43 9.65733 1170.17 10.056 1170.04 10.576L1166.79 9.406C1167.17 8.24467 1167.83 7.36067 1168.79 6.754C1169.76 6.13 1170.95 5.818 1172.38 5.818C1174.14 5.818 1175.49 6.26 1176.41 7.144C1177.32 8.028 1177.78 9.21533 1177.78 10.706V19H1174.25ZM1173.99 13.462L1171.57 13.748C1171.08 13.8173 1170.71 13.9733 1170.45 14.216C1170.21 14.4413 1170.09 14.7273 1170.09 15.074C1170.09 15.4033 1170.23 15.6807 1170.5 15.906C1170.78 16.1313 1171.16 16.244 1171.65 16.244C1172.13 16.244 1172.55 16.1487 1172.9 15.958C1173.24 15.75 1173.51 15.464 1173.7 15.1C1173.89 14.7187 1173.99 14.2507 1173.99 13.696V13.462ZM1181.38 15.022H1185.33L1182.39 22.458H1179.79L1181.38 15.022ZM1208.51 6.676C1208 5.75733 1207.36 5.09 1206.58 4.674C1205.82 4.24067 1204.96 4.024 1204.01 4.024C1203 4.024 1202.09 4.284 1201.28 4.804C1200.48 5.30667 1199.85 6 1199.38 6.884C1198.93 7.768 1198.7 8.77333 1198.7 9.9C1198.7 11.0787 1198.93 12.11 1199.38 12.994C1199.83 13.8607 1200.46 14.5453 1201.28 15.048C1202.09 15.5333 1203.05 15.776 1204.14 15.776C1204.81 15.776 1205.44 15.6633 1206.01 15.438C1206.58 15.1953 1207.09 14.866 1207.54 14.45C1208 14.034 1208.38 13.5573 1208.69 13.02V11.876H1204.01V8.704H1212.46V13.748C1212.04 14.7013 1211.44 15.594 1210.64 16.426C1209.84 17.2407 1208.88 17.908 1207.75 18.428C1206.63 18.9307 1205.34 19.182 1203.9 19.182C1202.55 19.182 1201.31 18.9567 1200.19 18.506C1199.06 18.0553 1198.08 17.414 1197.25 16.582C1196.42 15.75 1195.77 14.7707 1195.3 13.644C1194.85 12.5 1194.62 11.252 1194.62 9.9C1194.62 8.548 1194.85 7.30867 1195.3 6.182C1195.77 5.038 1196.41 4.05 1197.22 3.218C1198.05 2.386 1199.03 1.74467 1200.16 1.294C1201.29 0.843333 1202.53 0.618 1203.88 0.618C1205.14 0.618 1206.33 0.817333 1207.44 1.216C1208.57 1.61467 1209.55 2.19533 1210.38 2.958C1211.21 3.70333 1211.83 4.61333 1212.22 5.688L1208.51 6.676ZM1220.91 19.182C1219.64 19.182 1218.51 18.9133 1217.5 18.376C1216.49 17.8387 1215.71 17.0673 1215.13 16.062C1214.58 15.0567 1214.3 13.8693 1214.3 12.5C1214.3 11.1307 1214.59 9.952 1215.16 8.964C1215.75 7.95867 1216.55 7.18733 1217.55 6.65C1218.57 6.09533 1219.71 5.818 1220.96 5.818C1222.24 5.818 1223.38 6.09533 1224.39 6.65C1225.41 7.18733 1226.22 7.95867 1226.81 8.964C1227.4 9.952 1227.69 11.122 1227.69 12.474C1227.69 13.8607 1227.39 15.0567 1226.78 16.062C1226.19 17.0673 1225.38 17.8387 1224.34 18.376C1223.32 18.9133 1222.17 19.182 1220.91 19.182ZM1220.91 15.75C1221.36 15.75 1221.79 15.6287 1222.21 15.386C1222.62 15.1433 1222.95 14.788 1223.19 14.32C1223.45 13.8347 1223.58 13.228 1223.58 12.5C1223.58 11.772 1223.45 11.174 1223.19 10.706C1222.95 10.2207 1222.63 9.85667 1222.23 9.614C1221.83 9.37133 1221.41 9.25 1220.96 9.25C1220.47 9.25 1220.04 9.37133 1219.66 9.614C1219.28 9.85667 1218.96 10.2207 1218.72 10.706C1218.5 11.174 1218.38 11.772 1218.38 12.5C1218.38 13.228 1218.5 13.8347 1218.72 14.32C1218.95 14.788 1219.25 15.1433 1219.63 15.386C1220.01 15.6287 1220.44 15.75 1220.91 15.75ZM1237.5 19L1237.24 17.388C1236.78 17.9427 1236.3 18.376 1235.78 18.688C1235.26 19 1234.56 19.156 1233.67 19.156C1232.88 19.156 1232.16 19.0173 1231.52 18.74C1230.87 18.4453 1230.36 18.0207 1229.98 17.466C1229.62 16.9113 1229.44 16.244 1229.44 15.464C1229.44 14.3893 1229.82 13.4967 1230.58 12.786C1231.36 12.0753 1232.56 11.6333 1234.19 11.46L1237.24 11.122V10.264C1237.24 9.96933 1237.09 9.68333 1236.79 9.406C1236.52 9.11133 1236.07 8.964 1235.47 8.964C1234.93 8.964 1234.46 9.10267 1234.06 9.38C1233.68 9.65733 1233.42 10.056 1233.28 10.576L1230.03 9.406C1230.41 8.24467 1231.08 7.36067 1232.04 6.754C1233.01 6.13 1234.2 5.818 1235.62 5.818C1237.39 5.818 1238.73 6.26 1239.65 7.144C1240.57 8.028 1241.03 9.21533 1241.03 10.706V19H1237.5ZM1237.24 13.462L1234.82 13.748C1234.33 13.8173 1233.96 13.9733 1233.7 14.216C1233.46 14.4413 1233.34 14.7273 1233.34 15.074C1233.34 15.4033 1233.47 15.6807 1233.75 15.906C1234.03 16.1313 1234.41 16.244 1234.9 16.244C1235.38 16.244 1235.8 16.1487 1236.14 15.958C1236.49 15.75 1236.76 15.464 1236.95 15.1C1237.14 14.7187 1237.24 14.2507 1237.24 13.696V13.462ZM1275.1 19.208C1274.37 19.208 1273.78 18.9913 1273.33 18.558C1272.88 18.1073 1272.66 17.5613 1272.66 16.92C1272.66 16.296 1272.88 15.7673 1273.33 15.334C1273.78 14.8833 1274.37 14.658 1275.1 14.658C1275.81 14.658 1276.39 14.8833 1276.84 15.334C1277.29 15.7673 1277.52 16.296 1277.52 16.92C1277.52 17.5613 1277.29 18.1073 1276.84 18.558C1276.39 18.9913 1275.81 19.208 1275.1 19.208ZM1318.04 19.182C1316.74 19.182 1315.52 18.9567 1314.4 18.506C1313.27 18.0553 1312.28 17.4227 1311.43 16.608C1310.58 15.776 1309.92 14.7967 1309.43 13.67C1308.95 12.526 1308.7 11.2693 1308.7 9.9C1308.7 8.53067 1308.95 7.28267 1309.43 6.156C1309.92 5.012 1310.58 4.03267 1311.43 3.218C1312.28 2.386 1313.27 1.74467 1314.4 1.294C1315.52 0.843333 1316.74 0.618 1318.04 0.618C1319.32 0.618 1320.52 0.843333 1321.65 1.294C1322.79 1.74467 1323.78 2.386 1324.61 3.218C1325.46 4.03267 1326.13 5.012 1326.62 6.156C1327.1 7.28267 1327.34 8.53067 1327.34 9.9C1327.34 11.2693 1327.1 12.526 1326.62 13.67C1326.13 14.7967 1325.46 15.776 1324.61 16.608C1323.77 17.4227 1322.78 18.0553 1321.65 18.506C1320.52 18.9567 1319.32 19.182 1318.04 19.182ZM1318.04 15.75C1319.06 15.75 1319.96 15.5073 1320.74 15.022C1321.54 14.5193 1322.15 13.826 1322.59 12.942C1323.04 12.058 1323.26 11.044 1323.26 9.9C1323.26 8.73867 1323.04 7.72467 1322.59 6.858C1322.15 5.974 1321.54 5.28933 1320.74 4.804C1319.96 4.30133 1319.06 4.05 1318.04 4.05C1316.98 4.05 1316.06 4.30133 1315.28 4.804C1314.5 5.28933 1313.89 5.974 1313.43 6.858C1313 7.72467 1312.78 8.73867 1312.78 9.9C1312.78 11.044 1313 12.058 1313.43 12.942C1313.89 13.826 1314.5 14.5193 1315.28 15.022C1316.06 15.5073 1316.98 15.75 1318.04 15.75ZM1329.59 6H1333.02L1333.28 7.404C1333.71 6.936 1334.23 6.55467 1334.81 6.26C1335.4 5.96533 1336.05 5.818 1336.74 5.818C1337.76 5.818 1338.62 6.03467 1339.31 6.468C1340.02 6.90133 1340.56 7.534 1340.92 8.366C1341.31 9.198 1341.5 10.212 1341.5 11.408V19H1337.7V11.876C1337.7 11.0093 1337.52 10.3507 1337.15 9.9C1336.81 9.44933 1336.28 9.224 1335.57 9.224C1334.84 9.224 1334.29 9.458 1333.93 9.926C1333.57 10.3767 1333.38 11.0353 1333.38 11.902V19H1329.59V6ZM1350.27 19.182C1348.94 19.182 1347.78 18.9047 1346.79 18.35C1345.8 17.778 1345.03 16.9807 1344.47 15.958C1343.94 14.9353 1343.67 13.7393 1343.67 12.37C1343.67 11.1047 1343.94 9.978 1344.47 8.99C1345.01 8.002 1345.76 7.23067 1346.74 6.676C1347.71 6.104 1348.81 5.818 1350.04 5.818C1351.34 5.818 1352.46 6.08667 1353.42 6.624C1354.37 7.144 1355.12 7.88933 1355.65 8.86C1356.19 9.83067 1356.46 10.9573 1356.46 12.24C1356.46 12.448 1356.45 12.6647 1356.43 12.89C1356.42 13.1153 1356.39 13.3667 1356.36 13.644H1347.72C1347.81 14.112 1347.97 14.5193 1348.22 14.866C1348.46 15.1953 1348.76 15.4553 1349.13 15.646C1349.51 15.8193 1349.94 15.906 1350.43 15.906C1350.96 15.906 1351.45 15.7933 1351.88 15.568C1352.32 15.3427 1352.64 15.022 1352.85 14.606L1356.25 15.542C1355.73 16.7033 1354.95 17.6047 1353.91 18.246C1352.87 18.87 1351.66 19.182 1350.27 19.182ZM1352.33 11.174C1352.31 10.7407 1352.2 10.3593 1351.99 10.03C1351.78 9.70067 1351.51 9.44067 1351.18 9.25C1350.85 9.05933 1350.49 8.97267 1350.09 8.99C1349.69 9.00733 1349.33 9.11133 1349 9.302C1348.69 9.47533 1348.42 9.72667 1348.19 10.056C1347.97 10.368 1347.83 10.7407 1347.78 11.174H1352.33ZM1378.95 0.799999H1383.24L1376.68 19H1371.67L1365.11 0.799999H1369.43L1374.19 14.918L1378.95 0.799999ZM1391.28 19.182C1390.01 19.182 1388.88 18.9133 1387.87 18.376C1386.87 17.8387 1386.08 17.0673 1385.51 16.062C1384.95 15.0567 1384.67 13.8693 1384.67 12.5C1384.67 11.1307 1384.96 9.952 1385.53 8.964C1386.12 7.95867 1386.92 7.18733 1387.92 6.65C1388.95 6.09533 1390.08 5.818 1391.33 5.818C1392.61 5.818 1393.76 6.09533 1394.76 6.65C1395.78 7.18733 1396.59 7.95867 1397.18 8.964C1397.77 9.952 1398.06 11.122 1398.06 12.474C1398.06 13.8607 1397.76 15.0567 1397.15 16.062C1396.56 17.0673 1395.75 17.8387 1394.71 18.376C1393.69 18.9133 1392.54 19.182 1391.28 19.182ZM1391.28 15.75C1391.73 15.75 1392.16 15.6287 1392.58 15.386C1392.99 15.1433 1393.32 14.788 1393.57 14.32C1393.83 13.8347 1393.96 13.228 1393.96 12.5C1393.96 11.772 1393.83 11.174 1393.57 10.706C1393.32 10.2207 1393 9.85667 1392.6 9.614C1392.2 9.37133 1391.78 9.25 1391.33 9.25C1390.84 9.25 1390.41 9.37133 1390.03 9.614C1389.65 9.85667 1389.34 10.2207 1389.09 10.706C1388.87 11.174 1388.76 11.772 1388.76 12.5C1388.76 13.228 1388.87 13.8347 1389.09 14.32C1389.32 14.788 1389.62 15.1433 1390 15.386C1390.38 15.6287 1390.81 15.75 1391.28 15.75ZM1409.3 6H1413.4L1405.71 24.2H1401.83L1404.41 18.402L1399.26 6H1403.5L1406.38 13.774L1409.3 6ZM1422.77 19L1422.51 17.388C1422.06 17.9427 1421.57 18.376 1421.05 18.688C1420.53 19 1419.83 19.156 1418.95 19.156C1418.15 19.156 1417.43 19.0173 1416.79 18.74C1416.15 18.4453 1415.64 18.0207 1415.26 17.466C1414.89 16.9113 1414.71 16.244 1414.71 15.464C1414.71 14.3893 1415.09 13.4967 1415.85 12.786C1416.63 12.0753 1417.84 11.6333 1419.47 11.46L1422.51 11.122V10.264C1422.51 9.96933 1422.36 9.68333 1422.07 9.406C1421.79 9.11133 1421.35 8.964 1420.74 8.964C1420.21 8.964 1419.74 9.10267 1419.34 9.38C1418.96 9.65733 1418.7 10.056 1418.56 10.576L1415.31 9.406C1415.69 8.24467 1416.36 7.36067 1417.31 6.754C1418.28 6.13 1419.48 5.818 1420.9 5.818C1422.67 5.818 1424.01 6.26 1424.93 7.144C1425.85 8.028 1426.31 9.21533 1426.31 10.706V19H1422.77ZM1422.51 13.462L1420.09 13.748C1419.61 13.8173 1419.23 13.9733 1418.97 14.216C1418.73 14.4413 1418.61 14.7273 1418.61 15.074C1418.61 15.4033 1418.75 15.6807 1419.03 15.906C1419.3 16.1313 1419.69 16.244 1420.17 16.244C1420.66 16.244 1421.07 16.1487 1421.42 15.958C1421.77 15.75 1422.03 15.464 1422.22 15.1C1422.42 14.7187 1422.51 14.2507 1422.51 13.696V13.462ZM1438.17 6H1441.6V17.128C1441.6 18.6013 1441.24 19.858 1440.51 20.898C1439.78 21.9553 1438.73 22.77 1437.36 23.342C1435.99 23.914 1434.32 24.2 1432.35 24.2L1431.8 21.054C1433.76 21.0367 1435.25 20.7073 1436.27 20.066C1437.29 19.442 1437.81 18.532 1437.81 17.336V17.284L1438.35 16.972C1437.97 17.5613 1437.42 18.0813 1436.71 18.532C1436 18.9653 1435.15 19.182 1434.17 19.182C1433.06 19.182 1432.07 18.9133 1431.2 18.376C1430.35 17.8213 1429.69 17.0413 1429.2 16.036C1428.71 15.0307 1428.47 13.852 1428.47 12.5C1428.47 11.1307 1428.71 9.952 1429.2 8.964C1429.69 7.95867 1430.35 7.18733 1431.2 6.65C1432.07 6.09533 1433.06 5.818 1434.17 5.818C1434.72 5.818 1435.24 5.90467 1435.73 6.078C1436.21 6.234 1436.64 6.45067 1437.03 6.728C1437.41 6.988 1437.71 7.29133 1437.94 7.638L1438.17 6ZM1432.55 12.5C1432.55 13.4533 1432.8 14.2247 1433.28 14.814C1433.77 15.4033 1434.4 15.698 1435.18 15.698C1435.65 15.698 1436.08 15.568 1436.48 15.308C1436.88 15.048 1437.2 14.684 1437.44 14.216C1437.68 13.7307 1437.81 13.1587 1437.81 12.5C1437.81 11.8067 1437.68 11.226 1437.44 10.758C1437.2 10.29 1436.88 9.93467 1436.48 9.692C1436.08 9.44933 1435.66 9.328 1435.21 9.328C1434.41 9.328 1433.77 9.62267 1433.28 10.212C1432.8 10.784 1432.55 11.5467 1432.55 12.5ZM1450.51 19.182C1449.18 19.182 1448.02 18.9047 1447.03 18.35C1446.04 17.778 1445.27 16.9807 1444.72 15.958C1444.18 14.9353 1443.91 13.7393 1443.91 12.37C1443.91 11.1047 1444.18 9.978 1444.72 8.99C1445.25 8.002 1446.01 7.23067 1446.98 6.676C1447.95 6.104 1449.05 5.818 1450.28 5.818C1451.58 5.818 1452.71 6.08667 1453.66 6.624C1454.61 7.144 1455.36 7.88933 1455.9 8.86C1456.43 9.83067 1456.7 10.9573 1456.7 12.24C1456.7 12.448 1456.69 12.6647 1456.68 12.89C1456.66 13.1153 1456.63 13.3667 1456.6 13.644H1447.97C1448.05 14.112 1448.22 14.5193 1448.46 14.866C1448.7 15.1953 1449.01 15.4553 1449.37 15.646C1449.75 15.8193 1450.18 15.906 1450.67 15.906C1451.21 15.906 1451.69 15.7933 1452.13 15.568C1452.56 15.3427 1452.88 15.022 1453.09 14.606L1456.49 15.542C1455.97 16.7033 1455.19 17.6047 1454.15 18.246C1453.11 18.87 1451.9 19.182 1450.51 19.182ZM1452.57 11.174C1452.55 10.7407 1452.44 10.3593 1452.23 10.03C1452.02 9.70067 1451.75 9.44067 1451.42 9.25C1451.09 9.05933 1450.73 8.97267 1450.33 8.99C1449.93 9.00733 1449.57 9.11133 1449.24 9.302C1448.93 9.47533 1448.66 9.72667 1448.43 10.056C1448.21 10.368 1448.07 10.7407 1448.02 11.174H1452.57ZM1474.17 9.016C1474.79 9.016 1475.31 8.92067 1475.7 8.73C1476.1 8.53933 1476.4 8.262 1476.59 7.898C1476.8 7.51667 1476.9 7.07467 1476.9 6.572C1476.9 5.82667 1476.67 5.23733 1476.22 4.804C1475.79 4.37067 1475.11 4.154 1474.17 4.154H1470.45V9.016H1474.17ZM1480.98 6.572C1480.98 7.28267 1480.85 7.98467 1480.59 8.678C1480.35 9.354 1479.96 9.978 1479.42 10.55C1478.9 11.1047 1478.22 11.5467 1477.37 11.876C1476.54 12.2053 1475.54 12.37 1474.38 12.37H1470.45V19H1466.42V0.799999H1474.38C1475.85 0.799999 1477.07 1.06867 1478.04 1.606C1479.03 2.126 1479.77 2.828 1480.25 3.712C1480.74 4.57867 1480.98 5.532 1480.98 6.572ZM1489.31 19.182C1487.98 19.182 1486.81 18.9047 1485.83 18.35C1484.84 17.778 1484.07 16.9807 1483.51 15.958C1482.97 14.9353 1482.71 13.7393 1482.71 12.37C1482.71 11.1047 1482.97 9.978 1483.51 8.99C1484.05 8.002 1484.8 7.23067 1485.77 6.676C1486.74 6.104 1487.85 5.818 1489.08 5.818C1490.38 5.818 1491.5 6.08667 1492.46 6.624C1493.41 7.144 1494.15 7.88933 1494.69 8.86C1495.23 9.83067 1495.5 10.9573 1495.5 12.24C1495.5 12.448 1495.49 12.6647 1495.47 12.89C1495.45 13.1153 1495.43 13.3667 1495.39 13.644H1486.76C1486.85 14.112 1487.01 14.5193 1487.26 14.866C1487.5 15.1953 1487.8 15.4553 1488.17 15.646C1488.55 15.8193 1488.98 15.906 1489.47 15.906C1490 15.906 1490.49 15.7933 1490.92 15.568C1491.36 15.3427 1491.68 15.022 1491.88 14.606L1495.29 15.542C1494.77 16.7033 1493.99 17.6047 1492.95 18.246C1491.91 18.87 1490.7 19.182 1489.31 19.182ZM1491.36 11.174C1491.35 10.7407 1491.23 10.3593 1491.03 10.03C1490.82 9.70067 1490.55 9.44067 1490.22 9.25C1489.89 9.05933 1489.53 8.97267 1489.13 8.99C1488.73 9.00733 1488.37 9.11133 1488.04 9.302C1487.72 9.47533 1487.46 9.72667 1487.23 10.056C1487 10.368 1486.87 10.7407 1486.81 11.174H1491.36ZM1497.8 6H1501.26L1501.52 7.716C1501.85 7.26533 1502.24 6.89267 1502.69 6.598C1503.16 6.286 1503.67 6.078 1504.22 5.974C1504.8 5.87 1505.42 5.87867 1506.1 6V9.588C1505.65 9.432 1505.16 9.38867 1504.64 9.458C1504.12 9.51 1503.63 9.68333 1503.16 9.978C1502.69 10.2553 1502.31 10.6713 1502.01 11.226C1501.74 11.7807 1501.6 12.4827 1501.6 13.332V19H1497.8V6ZM1518.52 13.644C1518.62 14.1467 1518.81 14.5627 1519.09 14.892C1519.37 15.2213 1519.72 15.4727 1520.16 15.646C1520.59 15.802 1521.09 15.88 1521.64 15.88C1522.56 15.88 1523.25 15.6807 1523.72 15.282C1524.19 14.8833 1524.42 14.3893 1524.42 13.8C1524.42 13.3147 1524.27 12.9247 1523.98 12.63C1523.7 12.318 1523.3 12.058 1522.76 11.85C1522.24 11.642 1521.64 11.434 1520.96 11.226C1520.27 11.0353 1519.58 10.8187 1518.88 10.576C1518.19 10.316 1517.55 10.004 1516.96 9.64C1516.39 9.25867 1515.93 8.76467 1515.58 8.158C1515.24 7.55133 1515.07 6.79733 1515.09 5.896C1515.09 4.76933 1515.37 3.816 1515.92 3.036C1516.49 2.23867 1517.26 1.64067 1518.23 1.242C1519.22 0.825999 1520.36 0.618 1521.64 0.618C1522.77 0.618 1523.77 0.782666 1524.66 1.112C1525.54 1.424 1526.28 1.90067 1526.87 2.542C1527.46 3.166 1527.87 3.93733 1528.11 4.856L1524.42 5.662C1524.35 5.28067 1524.18 4.96 1523.9 4.7C1523.64 4.42267 1523.32 4.22333 1522.94 4.102C1522.56 3.96333 1522.17 3.88533 1521.77 3.868C1521.28 3.868 1520.84 3.946 1520.44 4.102C1520.06 4.258 1519.75 4.48333 1519.51 4.778C1519.28 5.07267 1519.17 5.41067 1519.17 5.792C1519.17 6.22533 1519.3 6.58067 1519.56 6.858C1519.84 7.118 1520.21 7.34333 1520.68 7.534C1521.15 7.72467 1521.66 7.91533 1522.21 8.106C1522.92 8.33133 1523.64 8.574 1524.37 8.834C1525.12 9.094 1525.8 9.432 1526.42 9.848C1527.05 10.2467 1527.55 10.7667 1527.93 11.408C1528.31 12.032 1528.5 12.812 1528.5 13.748C1528.5 14.7707 1528.26 15.6893 1527.78 16.504C1527.29 17.3187 1526.55 17.9687 1525.57 18.454C1524.6 18.9393 1523.36 19.182 1521.87 19.182C1520.63 19.182 1519.51 19 1518.52 18.636C1517.53 18.272 1516.72 17.7433 1516.08 17.05C1515.43 16.3567 1515.01 15.516 1514.8 14.528L1518.52 13.644ZM1530.91 0.279999H1534.71V19H1530.91V0.279999ZM1543.62 19.182C1542.36 19.182 1541.22 18.9133 1540.21 18.376C1539.21 17.8387 1538.42 17.0673 1537.85 16.062C1537.29 15.0567 1537.02 13.8693 1537.02 12.5C1537.02 11.1307 1537.3 9.952 1537.87 8.964C1538.46 7.95867 1539.26 7.18733 1540.27 6.65C1541.29 6.09533 1542.42 5.818 1543.67 5.818C1544.96 5.818 1546.1 6.09533 1547.1 6.65C1548.13 7.18733 1548.93 7.95867 1549.52 8.964C1550.11 9.952 1550.41 11.122 1550.41 12.474C1550.41 13.8607 1550.1 15.0567 1549.5 16.062C1548.91 17.0673 1548.09 17.8387 1547.05 18.376C1546.03 18.9133 1544.89 19.182 1543.62 19.182ZM1543.62 15.75C1544.07 15.75 1544.5 15.6287 1544.92 15.386C1545.34 15.1433 1545.67 14.788 1545.91 14.32C1546.17 13.8347 1546.3 13.228 1546.3 12.5C1546.3 11.772 1546.17 11.174 1545.91 10.706C1545.67 10.2207 1545.35 9.85667 1544.95 9.614C1544.55 9.37133 1544.12 9.25 1543.67 9.25C1543.19 9.25 1542.75 9.37133 1542.37 9.614C1541.99 9.85667 1541.68 10.2207 1541.44 10.706C1541.21 11.174 1541.1 11.772 1541.1 12.5C1541.1 13.228 1541.21 13.8347 1541.44 14.32C1541.66 14.788 1541.97 15.1433 1542.35 15.386C1542.73 15.6287 1543.15 15.75 1543.62 15.75ZM1553.71 6V2.36H1557.58V6H1560.26V9.354H1557.58V14.034C1557.58 14.6233 1557.71 15.0393 1557.97 15.282C1558.25 15.5247 1558.6 15.6547 1559.01 15.672C1559.43 15.672 1559.85 15.6373 1560.26 15.568V18.87C1559.38 19.026 1558.54 19.0693 1557.74 19C1556.94 18.948 1556.24 18.74 1555.63 18.376C1555.04 18.012 1554.58 17.4747 1554.23 16.764C1553.88 16.0533 1553.71 15.1433 1553.71 14.034V9.354H1551.89V6H1553.71Z" fill="#5E6573"/>
</svg>
