<svg width="49" height="48" viewBox="0 0 49 48" fill="none" xmlns="http://www.w3.org/2000/svg">
<g clip-path="url(#clip0_1923_364)">
<path d="M42.6622 2H22.6621C21.0708 2 19.5447 2.63214 18.4195 3.75736C17.2943 4.88258 16.6621 6.4087 16.6621 8V28.052C14.9414 26.7284 12.8331 26.0074 10.6621 26C8.68431 26 6.75091 26.5865 5.10642 27.6853C3.46192 28.7841 2.1802 30.3459 1.42332 32.1732C0.666442 34.0004 0.468409 36.0111 0.854261 37.9509C1.24011 39.8907 2.19252 41.6725 3.59105 43.0711C4.98958 44.4696 6.77141 45.422 8.71122 45.8079C10.651 46.1937 12.6617 45.9957 14.489 45.2388C16.3162 44.4819 17.878 43.2002 18.9768 41.5557C20.0756 39.9112 20.6621 37.9778 20.6621 36V8C20.6621 7.46957 20.8728 6.96086 21.2479 6.58579C21.623 6.21071 22.1317 6 22.6621 6H42.6622C43.1926 6 43.7013 6.21071 44.0764 6.58579C44.4514 6.96086 44.6622 7.46957 44.6622 8V28.052C42.9414 26.7284 40.8331 26.0074 38.6622 26C36.6843 26 34.7509 26.5865 33.1064 27.6853C31.462 28.7841 30.1802 30.3459 29.4233 32.1732C28.6665 34.0004 28.4684 36.0111 28.8543 37.9509C29.2401 39.8907 30.1926 41.6725 31.5911 43.0711C32.9896 44.4696 34.7714 45.422 36.7112 45.8079C38.6511 46.1937 40.6617 45.9957 42.489 45.2388C44.3163 44.4819 45.878 43.2002 46.9769 41.5557C48.0757 39.9112 48.6622 37.9778 48.6622 36V8C48.6622 6.4087 48.03 4.88258 46.9048 3.75736C45.7796 2.63214 44.2535 2 42.6622 2ZM10.6621 42C9.47544 42 8.3154 41.6481 7.3287 40.9888C6.342 40.3295 5.57297 39.3925 5.11884 38.2961C4.66471 37.1997 4.54589 35.9933 4.77741 34.8295C5.00892 33.6656 5.58036 32.5965 6.41948 31.7574C7.2586 30.9182 8.32769 30.3468 9.49158 30.1153C10.6555 29.8838 11.8619 30.0026 12.9582 30.4567C14.0546 30.9108 14.9917 31.6799 15.6509 32.6666C16.3102 33.6533 16.6621 34.8133 16.6621 36C16.6621 37.5913 16.03 39.1174 14.9048 40.2426C13.7796 41.3679 12.2534 42 10.6621 42ZM38.6622 42C37.4755 42 36.3154 41.6481 35.3287 40.9888C34.342 40.3295 33.573 39.3925 33.1189 38.2961C32.6647 37.1997 32.5459 35.9933 32.7774 34.8295C33.0089 33.6656 33.5804 32.5965 34.4195 31.7574C35.2586 30.9182 36.3277 30.3468 37.4916 30.1153C38.6555 29.8838 39.8619 30.0026 40.9583 30.4567C42.0546 30.9108 42.9917 31.6799 43.651 32.6666C44.3103 33.6533 44.6622 34.8133 44.6622 36C44.6622 37.5913 44.03 39.1174 42.9048 40.2426C41.7796 41.3679 40.2535 42 38.6622 42Z" fill="black"/>
</g>
<defs>
<clipPath id="clip0_1923_364">
<rect width="48" height="48" fill="white" transform="translate(0.662109)"/>
</clipPath>
</defs>
</svg>
