<svg width="49" height="48" viewBox="0 0 49 48" fill="none" xmlns="http://www.w3.org/2000/svg">
<g clip-path="url(#clip0_1923_354)">
<path d="M38.6621 8H37.6461L33.2781 2.336C32.7152 1.61161 31.9948 1.02483 31.1714 0.620108C30.3481 0.215383 29.4435 0.00332609 28.5261 0L20.7981 0C19.8807 0.00332609 18.9761 0.215383 18.1528 0.620108C17.3295 1.02483 16.6091 1.61161 16.0461 2.336L11.6781 8H10.6621C8.01092 8.00318 5.46922 9.05776 3.59455 10.9324C1.71987 12.8071 0.665285 15.3488 0.662109 18L0.662109 38C0.665285 40.6512 1.71987 43.1929 3.59455 45.0676C5.46922 46.9422 8.01092 47.9968 10.6621 48H38.6621C41.3133 47.9968 43.855 46.9422 45.7297 45.0676C47.6043 43.1929 48.6589 40.6512 48.6621 38V18C48.6589 15.3488 47.6043 12.8071 45.7297 10.9324C43.855 9.05776 41.3133 8.00318 38.6621 8ZM19.2141 4.78C19.4015 4.53811 19.6415 4.34213 19.916 4.20696C20.1905 4.0718 20.4922 4.00102 20.7981 4H28.5261C28.832 4.00132 29.1336 4.07223 29.408 4.20737C29.6825 4.34251 29.9226 4.53833 30.1101 4.78L32.5941 8H16.7301L19.2141 4.78ZM44.6621 38C44.6621 39.5913 44.03 41.1174 42.9048 42.2426C41.7795 43.3679 40.2534 44 38.6621 44H10.6621C9.07081 44 7.54469 43.3679 6.41947 42.2426C5.29425 41.1174 4.66211 39.5913 4.66211 38V18C4.66211 16.4087 5.29425 14.8826 6.41947 13.7574C7.54469 12.6321 9.07081 12 10.6621 12H38.6621C40.2534 12 41.7795 12.6321 42.9048 13.7574C44.03 14.8826 44.6621 16.4087 44.6621 18V38Z" fill="black"/>
<path d="M24.6621 16C22.2887 16 19.9687 16.7038 17.9953 18.0224C16.0219 19.3409 14.4838 21.2151 13.5756 23.4078C12.6673 25.6005 12.4297 28.0133 12.8927 30.3411C13.3557 32.6689 14.4986 34.8071 16.1768 36.4853C17.8551 38.1635 19.9933 39.3064 22.321 39.7694C24.6488 40.2325 27.0616 39.9948 29.2543 39.0866C31.4471 38.1783 33.3212 36.6403 34.6398 34.6669C35.9584 32.6935 36.6621 30.3734 36.6621 28C36.659 24.8184 35.3937 21.768 33.1439 19.5182C30.8942 17.2685 27.8438 16.0032 24.6621 16ZM24.6621 36C23.0799 36 21.5332 35.5308 20.2176 34.6518C18.902 33.7727 17.8766 32.5233 17.2711 31.0615C16.6656 29.5997 16.5072 27.9911 16.8158 26.4393C17.1245 24.8874 17.8864 23.462 19.0053 22.3432C20.1241 21.2243 21.5496 20.4624 23.1014 20.1537C24.6533 19.845 26.2618 20.0035 27.7236 20.609C29.1854 21.2145 30.4348 22.2399 31.3139 23.5554C32.1929 24.871 32.6621 26.4178 32.6621 28C32.6621 30.1217 31.8193 32.1566 30.319 33.6569C28.8187 35.1572 26.7839 36 24.6621 36Z" fill="black"/>
</g>
<defs>
<clipPath id="clip0_1923_354">
<rect width="48" height="48" fill="white" transform="translate(0.662109)"/>
</clipPath>
</defs>
</svg>
