<svg width="74" height="73" viewBox="0 0 74 73" fill="none" xmlns="http://www.w3.org/2000/svg">
<path d="M37.167 73C57.3254 73 73.667 56.6584 73.667 36.5C73.667 16.3416 57.3254 0 37.167 0C17.0086 0 0.666992 16.3416 0.666992 36.5C0.666992 56.6584 17.0086 73 37.167 73Z" fill="#DCAF26"/>
<path d="M31.6516 35.1358C32.5851 35.8356 33.3086 36.687 33.822 37.69C34.3354 38.6931 34.5921 39.8244 34.5921 41.084C34.5921 43.6033 33.7753 45.6443 32.1417 47.2072C30.508 48.7701 28.4776 49.5515 26.0505 49.5515C23.8568 49.5515 22.0598 48.875 20.6595 47.5221C19.2592 46.1692 18.5591 44.4197 18.5591 42.2737C18.5591 41.154 18.7691 40.081 19.1892 39.0546C19.6093 38.0282 20.3561 36.722 21.4296 35.1358L28.9911 23.4492H37.3227L31.6516 35.1358ZM49.9951 35.1358C50.9286 35.8356 51.6521 36.687 52.1655 37.69C52.6789 38.6931 52.9356 39.8244 52.9356 41.084C52.9356 43.6033 52.1188 45.6443 50.4852 47.2072C48.8515 48.7701 46.8211 49.5515 44.394 49.5515C42.2003 49.5515 40.4033 48.875 39.003 47.5221C37.6027 46.1692 36.9026 44.4197 36.9026 42.2737C36.9026 41.154 37.1126 40.081 37.5327 39.0546C37.9528 38.0282 38.6996 36.722 39.7731 35.1358L47.3346 23.4492H55.6662L49.9951 35.1358Z" fill="white"/>
</svg>
