<svg width="136" height="24" viewBox="0 0 136 24" fill="none" xmlns="http://www.w3.org/2000/svg">
<path d="M17.9189 14.32C17.6599 14.571 17.5409 14.934 17.5999 15.29L18.4889 20.21C18.5639 20.627 18.3879 21.049 18.0389 21.29C17.6969 21.54 17.2419 21.57 16.8689 21.37L12.4399 19.06C12.2859 18.978 12.1149 18.934 11.9399 18.929H11.6689C11.5749 18.943 11.4829 18.973 11.3989 19.019L6.96888 21.34C6.74988 21.45 6.50188 21.489 6.25888 21.45C5.66688 21.338 5.27188 20.774 5.36888 20.179L6.25888 15.259C6.31788 14.9 6.19888 14.535 5.93988 14.28L2.32888 10.78C2.02688 10.487 1.92188 10.047 2.05988 9.65C2.19388 9.254 2.53588 8.965 2.94888 8.9L7.91888 8.179C8.29688 8.14 8.62888 7.91 8.79888 7.57L10.9889 3.08C11.0409 2.98 11.1079 2.888 11.1889 2.81L11.2789 2.74C11.3259 2.688 11.3799 2.645 11.4399 2.61L11.5489 2.57L11.7189 2.5H12.1399C12.5159 2.539 12.8469 2.764 13.0199 3.1L15.2389 7.57C15.3989 7.897 15.7099 8.124 16.0689 8.179L21.0389 8.9C21.4589 8.96 21.8099 9.25 21.9489 9.65C22.0799 10.051 21.9669 10.491 21.6589 10.78L17.9189 14.32Z" fill="#FC3B2E"/>
<path d="M45.9189 14.32C45.6599 14.571 45.5409 14.934 45.5999 15.29L46.4889 20.21C46.5639 20.627 46.3879 21.049 46.0389 21.29C45.6969 21.54 45.2419 21.57 44.8689 21.37L40.4399 19.06C40.2859 18.978 40.1149 18.934 39.9399 18.929H39.6689C39.5749 18.943 39.4829 18.973 39.3989 19.019L34.9689 21.34C34.7499 21.45 34.5019 21.489 34.2589 21.45C33.6669 21.338 33.2719 20.774 33.3689 20.179L34.2589 15.259C34.3179 14.9 34.1989 14.535 33.9399 14.28L30.3289 10.78C30.0269 10.487 29.9219 10.047 30.0599 9.65C30.1939 9.254 30.5359 8.965 30.9489 8.9L35.9189 8.179C36.2969 8.14 36.6289 7.91 36.7989 7.57L38.9889 3.08C39.0409 2.98 39.1079 2.888 39.1889 2.81L39.2789 2.74C39.3259 2.688 39.3799 2.645 39.4399 2.61L39.5489 2.57L39.7189 2.5H40.1399C40.5159 2.539 40.8469 2.764 41.0199 3.1L43.2389 7.57C43.3989 7.897 43.7099 8.124 44.0689 8.179L49.0389 8.9C49.4589 8.96 49.8099 9.25 49.9489 9.65C50.0799 10.051 49.9669 10.491 49.6589 10.78L45.9189 14.32Z" fill="#FC3B2E"/>
<path d="M73.9189 14.32C73.6599 14.571 73.5409 14.934 73.5999 15.29L74.4889 20.21C74.5639 20.627 74.3879 21.049 74.0389 21.29C73.6969 21.54 73.2419 21.57 72.8689 21.37L68.4399 19.06C68.2859 18.978 68.1149 18.934 67.9399 18.929H67.6689C67.5749 18.943 67.4829 18.973 67.3989 19.019L62.9689 21.34C62.7499 21.45 62.5019 21.489 62.2589 21.45C61.6669 21.338 61.2719 20.774 61.3689 20.179L62.2589 15.259C62.3179 14.9 62.1989 14.535 61.9399 14.28L58.3289 10.78C58.0269 10.487 57.9219 10.047 58.0599 9.65C58.1939 9.254 58.5359 8.965 58.9489 8.9L63.9189 8.179C64.2969 8.14 64.6289 7.91 64.7989 7.57L66.9889 3.08C67.0409 2.98 67.1079 2.888 67.1889 2.81L67.2789 2.74C67.3259 2.688 67.3799 2.645 67.4399 2.61L67.5489 2.57L67.7189 2.5H68.1399C68.5159 2.539 68.8469 2.764 69.0199 3.1L71.2389 7.57C71.3989 7.897 71.7099 8.124 72.0689 8.179L77.0389 8.9C77.4589 8.96 77.8099 9.25 77.9489 9.65C78.0799 10.051 77.9669 10.491 77.6589 10.78L73.9189 14.32Z" fill="#FC3B2E"/>
<path d="M101.919 14.32C101.66 14.571 101.541 14.934 101.6 15.29L102.489 20.21C102.564 20.627 102.388 21.049 102.039 21.29C101.697 21.54 101.242 21.57 100.869 21.37L96.4399 19.06C96.2859 18.978 96.1149 18.934 95.9399 18.929H95.6689C95.5749 18.943 95.4829 18.973 95.3989 19.019L90.9689 21.34C90.7499 21.45 90.5019 21.489 90.2589 21.45C89.6669 21.338 89.2719 20.774 89.3689 20.179L90.2589 15.259C90.3179 14.9 90.1989 14.535 89.9399 14.28L86.3289 10.78C86.0269 10.487 85.9219 10.047 86.0599 9.65C86.1939 9.254 86.5359 8.965 86.9489 8.9L91.9189 8.179C92.2969 8.14 92.6289 7.91 92.7989 7.57L94.9889 3.08C95.0409 2.98 95.1079 2.888 95.1889 2.81L95.2789 2.74C95.3259 2.688 95.3799 2.645 95.4399 2.61L95.5489 2.57L95.7189 2.5H96.1399C96.5159 2.539 96.8469 2.764 97.0199 3.1L99.2389 7.57C99.3989 7.897 99.7099 8.124 100.069 8.179L105.039 8.9C105.459 8.96 105.81 9.25 105.949 9.65C106.08 10.051 105.967 10.491 105.659 10.78L101.919 14.32Z" fill="#FC3B2E"/>
<path d="M129.919 14.32C129.66 14.571 129.541 14.934 129.6 15.29L130.489 20.21C130.564 20.627 130.388 21.049 130.039 21.29C129.697 21.54 129.242 21.57 128.869 21.37L124.44 19.06C124.286 18.978 124.115 18.934 123.94 18.929H123.669C123.575 18.943 123.483 18.973 123.399 19.019L118.969 21.34C118.75 21.45 118.502 21.489 118.259 21.45C117.667 21.338 117.272 20.774 117.369 20.179L118.259 15.259C118.318 14.9 118.199 14.535 117.94 14.28L114.329 10.78C114.027 10.487 113.922 10.047 114.06 9.65C114.194 9.254 114.536 8.965 114.949 8.9L119.919 8.179C120.297 8.14 120.629 7.91 120.799 7.57L122.989 3.08C123.041 2.98 123.108 2.888 123.189 2.81L123.279 2.74C123.326 2.688 123.38 2.645 123.44 2.61L123.549 2.57L123.719 2.5H124.14C124.516 2.539 124.847 2.764 125.02 3.1L127.239 7.57C127.399 7.897 127.71 8.124 128.069 8.179L133.039 8.9C133.459 8.96 133.81 9.25 133.949 9.65C134.08 10.051 133.967 10.491 133.659 10.78L129.919 14.32Z" fill="#FC3B2E"/>
</svg>
