<svg width="136" height="24" viewBox="0 0 136 24" fill="none" xmlns="http://www.w3.org/2000/svg">
<path d="M17.9184 14.32C17.6594 14.571 17.5404 14.934 17.5994 15.29L18.4884 20.21C18.5634 20.627 18.3874 21.049 18.0384 21.29C17.6964 21.54 17.2414 21.57 16.8684 21.37L12.4394 19.06C12.2854 18.978 12.1144 18.934 11.9394 18.929H11.6684C11.5744 18.943 11.4824 18.973 11.3984 19.019L6.96839 21.34C6.74939 21.45 6.50139 21.489 6.25839 21.45C5.66639 21.338 5.27139 20.774 5.36839 20.179L6.25839 15.259C6.31739 14.9 6.19839 14.535 5.93939 14.28L2.32839 10.78C2.02639 10.487 1.92139 10.047 2.05939 9.65C2.19339 9.254 2.53539 8.965 2.94839 8.9L7.91839 8.179C8.29639 8.14 8.62839 7.91 8.79839 7.57L10.9884 3.08C11.0404 2.98 11.1074 2.888 11.1884 2.81L11.2784 2.74C11.3254 2.688 11.3794 2.645 11.4394 2.61L11.5484 2.57L11.7184 2.5H12.1394C12.5154 2.539 12.8464 2.764 13.0194 3.1L15.2384 7.57C15.3984 7.897 15.7094 8.124 16.0684 8.179L21.0384 8.9C21.4584 8.96 21.8094 9.25 21.9484 9.65C22.0794 10.051 21.9664 10.491 21.6584 10.78L17.9184 14.32Z" fill="#FF7200"/>
<path d="M45.9184 14.32C45.6594 14.571 45.5404 14.934 45.5994 15.29L46.4884 20.21C46.5634 20.627 46.3874 21.049 46.0384 21.29C45.6964 21.54 45.2414 21.57 44.8684 21.37L40.4394 19.06C40.2854 18.978 40.1144 18.934 39.9394 18.929H39.6684C39.5744 18.943 39.4824 18.973 39.3984 19.019L34.9684 21.34C34.7494 21.45 34.5014 21.489 34.2584 21.45C33.6664 21.338 33.2714 20.774 33.3684 20.179L34.2584 15.259C34.3174 14.9 34.1984 14.535 33.9394 14.28L30.3284 10.78C30.0264 10.487 29.9214 10.047 30.0594 9.65C30.1934 9.254 30.5354 8.965 30.9484 8.9L35.9184 8.179C36.2964 8.14 36.6284 7.91 36.7984 7.57L38.9884 3.08C39.0404 2.98 39.1074 2.888 39.1884 2.81L39.2784 2.74C39.3254 2.688 39.3794 2.645 39.4394 2.61L39.5484 2.57L39.7184 2.5H40.1394C40.5154 2.539 40.8464 2.764 41.0194 3.1L43.2384 7.57C43.3984 7.897 43.7094 8.124 44.0684 8.179L49.0384 8.9C49.4584 8.96 49.8094 9.25 49.9484 9.65C50.0794 10.051 49.9664 10.491 49.6584 10.78L45.9184 14.32Z" fill="#FF7200"/>
<path d="M73.9184 14.32C73.6594 14.571 73.5404 14.934 73.5994 15.29L74.4884 20.21C74.5634 20.627 74.3874 21.049 74.0384 21.29C73.6964 21.54 73.2414 21.57 72.8684 21.37L68.4394 19.06C68.2854 18.978 68.1144 18.934 67.9394 18.929H67.6684C67.5744 18.943 67.4824 18.973 67.3984 19.019L62.9684 21.34C62.7494 21.45 62.5014 21.489 62.2584 21.45C61.6664 21.338 61.2714 20.774 61.3684 20.179L62.2584 15.259C62.3174 14.9 62.1984 14.535 61.9394 14.28L58.3284 10.78C58.0264 10.487 57.9214 10.047 58.0594 9.65C58.1934 9.254 58.5354 8.965 58.9484 8.9L63.9184 8.179C64.2964 8.14 64.6284 7.91 64.7984 7.57L66.9884 3.08C67.0404 2.98 67.1074 2.888 67.1884 2.81L67.2784 2.74C67.3254 2.688 67.3794 2.645 67.4394 2.61L67.5484 2.57L67.7184 2.5H68.1394C68.5154 2.539 68.8464 2.764 69.0194 3.1L71.2384 7.57C71.3984 7.897 71.7094 8.124 72.0684 8.179L77.0384 8.9C77.4584 8.96 77.8094 9.25 77.9484 9.65C78.0794 10.051 77.9664 10.491 77.6584 10.78L73.9184 14.32Z" fill="#FF7200"/>
<path d="M101.918 14.32C101.659 14.571 101.54 14.934 101.599 15.29L102.488 20.21C102.563 20.627 102.387 21.049 102.038 21.29C101.696 21.54 101.241 21.57 100.868 21.37L96.4394 19.06C96.2854 18.978 96.1144 18.934 95.9394 18.929H95.6684C95.5744 18.943 95.4824 18.973 95.3984 19.019L90.9684 21.34C90.7494 21.45 90.5014 21.489 90.2584 21.45C89.6664 21.338 89.2714 20.774 89.3684 20.179L90.2584 15.259C90.3174 14.9 90.1984 14.535 89.9394 14.28L86.3284 10.78C86.0264 10.487 85.9214 10.047 86.0594 9.65C86.1934 9.254 86.5354 8.965 86.9484 8.9L91.9184 8.179C92.2964 8.14 92.6284 7.91 92.7984 7.57L94.9884 3.08C95.0404 2.98 95.1074 2.888 95.1884 2.81L95.2784 2.74C95.3254 2.688 95.3794 2.645 95.4394 2.61L95.5484 2.57L95.7184 2.5H96.1394C96.5154 2.539 96.8464 2.764 97.0194 3.1L99.2384 7.57C99.3984 7.897 99.7094 8.124 100.068 8.179L105.038 8.9C105.458 8.96 105.809 9.25 105.948 9.65C106.079 10.051 105.966 10.491 105.658 10.78L101.918 14.32Z" fill="#FF7200"/>
<path d="M129.918 14.32C129.659 14.571 129.54 14.934 129.599 15.29L130.488 20.21C130.563 20.627 130.387 21.049 130.038 21.29C129.696 21.54 129.241 21.57 128.868 21.37L124.439 19.06C124.285 18.978 124.114 18.934 123.939 18.929H123.668C123.574 18.943 123.482 18.973 123.398 19.019L118.968 21.34C118.749 21.45 118.501 21.489 118.258 21.45C117.666 21.338 117.271 20.774 117.368 20.179L118.258 15.259C118.317 14.9 118.198 14.535 117.939 14.28L114.328 10.78C114.026 10.487 113.921 10.047 114.059 9.65C114.193 9.254 114.535 8.965 114.948 8.9L119.918 8.179C120.296 8.14 120.628 7.91 120.798 7.57L122.988 3.08C123.04 2.98 123.107 2.888 123.188 2.81L123.278 2.74C123.325 2.688 123.379 2.645 123.439 2.61L123.548 2.57L123.718 2.5H124.139C124.515 2.539 124.846 2.764 125.019 3.1L127.238 7.57C127.398 7.897 127.709 8.124 128.068 8.179L133.038 8.9C133.458 8.96 133.809 9.25 133.948 9.65C134.079 10.051 133.966 10.491 133.658 10.78L129.918 14.32Z" fill="#FF7200"/>
</svg>
