<svg width="19" height="18" viewBox="0 0 19 18" fill="none" xmlns="http://www.w3.org/2000/svg">
<g clip-path="url(#clip0_1915_315)">
<path d="M8.58768 17.2382C4.03907 17.2382 0.337891 13.5372 0.337891 8.98856C0.337891 4.43995 4.03907 0.73877 8.58768 0.73877C10.1694 0.73877 11.7082 1.18947 13.038 2.04294C13.299 2.21103 13.3755 2.55901 13.2074 2.82075C13.0388 3.08249 12.6915 3.15816 12.4298 2.99021C11.2823 2.25291 9.95337 1.86373 8.58768 1.86373C4.65923 1.86373 1.46286 5.06011 1.46286 8.98856C1.46286 12.9169 4.65923 16.1132 8.58768 16.1132C12.516 16.1132 15.7124 12.9169 15.7124 8.98856C15.7124 8.75373 15.7011 8.52124 15.6794 8.29259C15.6495 7.98279 15.8759 7.70828 16.1849 7.67834C16.4954 7.64978 16.7691 7.87485 16.7992 8.18383C16.8246 8.4486 16.8373 8.71707 16.8373 8.98856C16.8373 13.5372 13.1363 17.2382 8.58768 17.2382Z" fill="#00A651"/>
<path d="M9.52499 10.8637C9.38108 10.8637 9.23702 10.8089 9.12757 10.6988L5.75268 7.32391C5.53296 7.10406 5.53296 6.74784 5.75268 6.52812C5.9724 6.3084 6.32862 6.3084 6.54834 6.52812L9.52582 9.50559L17.3772 1.65405C17.5971 1.43433 17.9533 1.43433 18.173 1.65405C18.3927 1.87377 18.3927 2.22999 18.173 2.44971L9.92323 10.6995C9.81296 10.8089 9.66905 10.8637 9.52499 10.8637Z" fill="#00A651"/>
</g>
<defs>
<clipPath id="clip0_1915_315">
<rect width="18" height="18" fill="white" transform="translate(0.337891)"/>
</clipPath>
</defs>
</svg>
