<svg width="32" height="32" viewBox="0 0 32 32" fill="none" xmlns="http://www.w3.org/2000/svg">
<path d="M28.2498 13.3423C27.8167 13.0906 27.4276 12.7699 27.0978 12.393C27.1311 11.8682 27.2561 11.3533 27.4671 10.8717C27.8551 9.77701 28.2938 8.53701 27.5898 7.57301C26.8858 6.60901 25.5564 6.63967 24.3898 6.66634C23.8742 6.71938 23.3535 6.68421 22.8498 6.56234C22.5814 6.12568 22.3897 5.64632 22.2831 5.14501C21.9524 4.01834 21.5751 2.74501 20.4164 2.36367C19.2991 2.00367 18.2644 2.79567 17.3498 3.49167C16.9551 3.8521 16.4978 4.13724 16.0004 4.33301C15.4979 4.13884 15.0355 3.85362 14.6364 3.49167C13.7244 2.79967 12.6938 1.99967 11.5711 2.36501C10.4151 2.74101 10.0378 4.01834 9.70442 5.14501C9.59793 5.64469 9.40817 6.12292 9.14309 6.55967C8.63844 6.68122 8.11699 6.71727 7.60042 6.66634C6.42975 6.63434 5.11109 6.59967 4.40042 7.57301C3.68975 8.54634 4.13375 9.77701 4.52309 10.8703C4.73701 11.3513 4.86387 11.8664 4.89775 12.3917C4.56853 12.7691 4.17985 13.0902 3.74709 13.3423C2.77109 14.009 1.66309 14.7677 1.66309 15.9997C1.66309 17.2317 2.77109 17.9877 3.74709 18.657C4.17975 18.9087 4.56842 19.2294 4.89775 19.6063C4.86743 20.1314 4.74418 20.647 4.53375 21.129C4.14709 22.2223 3.70975 23.4623 4.41242 24.4263C5.11509 25.3903 6.44042 25.3597 7.61242 25.333C8.12838 25.2799 8.64961 25.3151 9.15375 25.437C9.42093 25.8741 9.61208 26.3533 9.71909 26.8543C10.0498 27.981 10.4271 29.2543 11.5858 29.6357C11.7715 29.6952 11.9653 29.7258 12.1604 29.7263C13.098 29.5918 13.9695 29.1654 14.6511 28.5077C15.0458 28.1473 15.5031 27.8621 16.0004 27.6663C16.503 27.8605 16.9654 28.1457 17.3644 28.5077C18.2778 29.205 19.3124 30.001 20.4311 29.6343C21.5871 29.2583 21.9644 27.981 22.2978 26.8557C22.4046 26.3551 22.5958 25.8762 22.8631 25.4397C23.3658 25.3173 23.8856 25.2812 24.4004 25.333C25.5711 25.361 26.8898 25.3997 27.6004 24.4263C28.3111 23.453 27.8671 22.2223 27.4778 21.1277C27.2653 20.6472 27.1385 20.1332 27.1031 19.609C27.4325 19.2312 27.8217 18.9101 28.2551 18.6583C29.2311 17.9917 30.3391 17.2317 30.3391 15.9997C30.3391 14.7677 29.2271 14.0103 28.2498 13.3423Z" fill="#49ADF4"/>
<path d="M14.6671 19.666C14.5358 19.6663 14.4057 19.6405 14.2844 19.5901C14.1631 19.5398 14.053 19.4659 13.9604 19.3727L11.2938 16.706C11.1171 16.5165 11.021 16.2657 11.0255 16.0067C11.0301 15.7476 11.1351 15.5004 11.3183 15.3172C11.5015 15.134 11.7487 15.029 12.0078 15.0245C12.2668 15.0199 12.5175 15.116 12.7071 15.2927L14.7604 17.346L19.4004 13.866C19.6126 13.7069 19.8793 13.6386 20.1419 13.6761C20.4044 13.7136 20.6413 13.8538 20.8004 14.066C20.9596 14.2782 21.0279 14.5449 20.9904 14.8074C20.9529 15.07 20.8126 15.3069 20.6004 15.466L15.2671 19.466C15.094 19.5958 14.8835 19.6659 14.6671 19.666Z" fill="white"/>
</svg>
